<?xml version="1.0" encoding="utf-8"?>
<!-- Generator: Adobe Illustrator 22.1.0, SVG Export Plug-In . SVG Version: 6.00 Build 0)  -->
<svg version="1.1" xmlns="http://www.w3.org/2000/svg" xmlns:xlink="http://www.w3.org/1999/xlink" x="0px" y="0px"
	 viewBox="0 0 1000 600" style="enable-background:new 0 0 1000 600;" xml:space="preserve">
<style type="text/css">
	.st0{fill:#F7F7F7;}
	.st1{fill:#DEDEDE;}
	.st2{fill:#B7B7B7;}
	.st3{fill:#A0A0A0;stroke:#A0A0A0;stroke-miterlimit:10;}
	.st4{fill:#878787;}
	.st5{fill:#BCBCBC;stroke:#BCBCBC;stroke-miterlimit:10;}
	.st6{fill:#EF4C20;}
	.st7{fill:#CE310D;}
	.st8{fill:#EF7A5B;}
	.st9{fill:#DF2D0F;}
	.st10{fill:#FF6633;}
	.st11{display:none;opacity:0.68;}
	.st12{display:inline;fill:#CE310D;}
	.st13{opacity:0.55;}
	.st14{fill:#3C4454;}
	.st15{fill:#2B3E68;}
	.st16{fill:#D3D3D3;}
	.st17{fill:#FF9966;}
</style>
<g id="nopointer">
	<g id="Background_Color">
		<rect class="st0" width="1000" height="600"/>
	</g>
	<g id="lobby_and_garage">
		<polygon class="st1" points="408,280 440.2,292.7 431.8,302.3 432,308.3 441.3,312.2 397,362 386.2,357.3 358.3,387.7 359,393.3 
			368,397.7 354,413.3 354,416.2 350,414.2 347.6,417.1 294.3,391.6 294.2,389.9 340.5,343.2 339.7,337.5 334.7,335 350.3,319.2 
			354.7,321 386,290.2 394.7,293.5 		"/>
		<polygon class="st1" points="760.8,303.2 747.8,329 914.6,388.7 913.3,395 914.7,395.1 917.6,389.7 930,393.8 940.3,351 
			893.9,334.9 889.1,347.2 		"/>
		<g id="Layer_35">
			<polygon class="st2" points="192.3,140.7 336.7,48.7 747.9,164.9 658.7,308 			"/>
		</g>
	</g>
	<g id="Layer_8">
		<polygon class="st3" points="193.5,141.2 195.1,147.4 657.5,315.2 658.2,308.4 		"/>
		<polygon class="st4" points="294.3,389.9 294.4,391.7 347.5,417.2 348.5,415.9 		"/>
	</g>
	<g id="Layer_9">
		<polygon class="st5" points="747.1,167.2 746.3,172.4 658.4,314.4 658.8,308.7 		"/>
	</g>
	<g id="Layer_31">
		<polygon class="st6" points="70.3,224.2 71.2,223.3 100.7,204.2 94,201.2 91.4,194.3 145.2,160.4 158.1,165.3 160.2,172.1 
			154.9,175.9 195.2,191.6 196.6,192.2 241.5,209.6 241.7,211.3 243,210.3 290,228.6 290.1,230.2 291.3,229.2 341,248.5 
			341.1,250.1 342.4,248.9 407.9,274.8 408.2,279.8 394.6,293.5 386,290.1 354.7,321.1 350.3,319.3 334.7,335 339.7,337.3 
			340.6,343.1 294.2,389.9 294.4,391.6 292.2,390.5 292.8,393.4 277.8,408.7 225.8,383.3 223.3,375.9 224.1,375.1 216,371.1 
			215.6,369.5 214.5,370.6 207.9,367.2 202.1,372.6 156,349.8 153.1,342.1 154.7,340.8 110.7,319.4 110.2,318.1 108.9,318.6 
			92.6,310.5 11.8,272.4 8.2,265.8 32.2,241.9 57.4,216.7 69.7,222.4 		"/>
	</g>
	<g id="Layer_10">
		<path class="st6" d="M431.8,302.7l0.2,6.1l9,3.2l-44.5,49.8l-10.5-4.5l-27.8,30.2l0.8,5.8l8.8,4.4L354,413.5l0.4,3.1l-4.6-2.2
			l-8.1,9.2l1.2,7.2l63.5,30.8l1.8-1.5l-0.3-4.6l8.2-9.8l1.4,0.8l-0.1-2.7L516.2,320c-0.8-0.2-1-3.5-1-3.5l-71-27.8L431.8,302.7z"/>
		<polygon class="st6" points="746.5,328.8 914.5,389 913,395.5 914,396.2 917.7,389.7 931.2,394.2 930.3,398.5 940.4,402.1 
			929.5,447.8 925.2,454.8 916.7,451.8 914.5,461.5 926.2,466.5 915,513 910.7,520.5 901.2,516.5 900.2,520.2 896.2,527.2 
			881,521.2 898.2,455.8 881.5,512.8 877.2,520 736,461 727.5,370.2 729.7,363 		"/>
		<polygon class="st6" points="762,296 761.5,303 888.7,346.8 892,340 893.7,335 924.4,345.4 928.2,338.6 933.2,319.5 927.2,346.5 
			940.2,350.8 943.2,345.2 950.5,347.5 954.5,340.5 962.5,306.2 941.5,299.2 937.7,305.8 943,283 792.3,236.5 		"/>
		<polygon class="st6" points="205.5,359.8 207.7,367.3 214.2,370.5 212,363 		"/>
		<polygon class="st6" points="153.2,342.4 155.7,349.8 201.7,372.4 199.2,364.9 		"/>
		<path class="st6" d="M108.2,312l49.5,24.2l0.6,2.1l-3.4,2.8l-44-21.6C110.8,319.4,108,312,108.2,312z"/>
		<polygon class="st6" points="8.2,265.8 106.1,311.4 108.9,318.6 11.7,272.3 		"/>
		<polygon class="st6" points="91.5,194.4 104.7,199.6 105.1,201.5 100.6,204.4 93.9,201.2 		"/>
		<polygon class="st7" points="241.3,209.6 241.7,211.3 130.2,295.2 130.7,298 129.2,297.3 128.2,294.4 		"/>
		<polygon class="st7" points="289.7,228.6 290.3,230.2 172.2,326.9 173.2,329.8 171.4,328.9 170.3,326 		"/>
		<polygon class="st7" points="340.5,248.5 341.2,250.4 235.7,344.8 236.2,347.6 233.7,346.4 225.2,354.2 224.8,351.7 		"/>
		<polygon class="st8" points="407.8,274.4 408.2,279.9 394.7,293.6 386.1,290.2 355,321.1 350.5,319.2 334.7,335 329.8,332.7 
			349.7,313.2 354.2,315.2 385.4,284.3 394.4,287.7 		"/>
		<polygon class="st8" points="293.1,383.8 294.2,389.8 340.5,343.2 339.7,337.4 		"/>
		<polygon class="st8" points="275.9,401.2 290.9,386.1 292.7,393.3 277.7,408.8 		"/>
		<path class="st8" d="M199.6,365l2.6,7.6c0,0,5.8-5.1,5.7-5.4s-2.3-7.5-2.3-7.5L199.6,365z"/>
		<polygon class="st7" points="158.3,165.3 160.2,172.2 154.9,176 148.5,173.6 105.2,201.4 104.9,199.4 		"/>
		<polygon class="st7" points="235.4,344.6 257.4,354.8 248.7,363.2 292.8,383.9 294.2,391.5 292.2,390.4 291.2,386.1 244.2,364 
			252.9,355.8 235.6,347.4 		"/>
		<polygon class="st6" points="275.7,401.3 277.7,408.9 225.6,383.3 223.2,375.8 		"/>
		<polygon class="st6" points="214,363.9 216,371.2 223.8,375.1 228.2,371 		"/>
		<polygon class="st7" points="171.4,326.6 224.6,351.8 225,354.4 214,363.9 215.6,369.6 214.4,370.6 212.3,363 222.5,353.8 
			170,328.6 158.2,338.1 157.7,336 168.2,327.8 152.5,320 161.7,312.8 127.9,297 108,312 110.2,318.1 109.1,318.6 106.2,311.2 
			126.1,296.1 102.5,284.9 93.2,291.8 54.6,273.5 30.9,261.9 69.7,222.2 70.2,224.1 34.1,261.2 93.5,289.5 102.9,282.9 165.1,311.8 
			156.1,319.5 		"/>
		<polygon class="st7" points="515.5,316.5 516,319.8 417.3,443.8 417.8,446.5 415.8,445.7 407.8,455.3 408.2,459.5 406.5,461.5 
			405.5,454 413.3,445 390.8,433.7 398.3,425.3 366.2,409.8 358.2,418.2 354.4,416.4 354.2,413.3 358,415.3 365.8,407.2 402.2,424 
			395.2,433 414.8,442.2 439,412.7 		"/>
		<polygon class="st6" points="341.7,423.3 405.5,454 406.5,461.5 342.8,430.7 		"/>
		<polygon class="st7" points="358.5,387.8 371.2,393.8 367.8,397.7 358.8,393.2 		"/>
		<polygon class="st9" points="431.7,302.7 445,308 441.2,311.8 431.8,308.3 		"/>
		<polygon class="st8" points="738.3,453.7 736,461 877.3,519.7 881.7,512.7 		"/>
		<polygon class="st8" points="885.1,513.8 881,521.1 896.2,527.4 900.4,520.4 		"/>
		<polygon class="st8" points="903.1,508.5 915.2,513.4 910.9,520.6 901.4,516.6 		"/>
		<polygon class="st8" points="919,443.8 929.7,447.8 925.6,455 917.1,451.8 		"/>
		<polygon class="st8" points="943.2,345.2 940.5,351 927.2,346.5 930.5,340.8 		"/>
		<polygon class="st8" points="945.1,337.2 954.5,340.7 951.2,347.8 943.2,345.2 		"/>
		<polygon class="st8" points="928.2,338.8 924.4,345.5 893.7,335.1 896.2,327.8 		"/>
		<polygon class="st8" points="892,339.8 889,347.2 761.1,303.5 762,296 853,326.6 		"/>
		<polygon class="st9" points="729.5,363.5 727.5,371.2 729,388.5 729.9,388.8 729.5,391.2 736,461 738.3,453.7 732,383.1 		"/>
		<polygon class="st7" points="731.5,380.8 730.8,383 729,388.7 729.9,388.8 732.1,383.1 899.3,447.2 897.2,454.8 880.8,521.3 
			885.2,513.8 902.5,448.3 916.7,453.7 917.2,451.7 902.7,446 917.8,390 914.7,395.3 912.8,395.2 899.5,444.7 		"/>
		<polygon class="st7" points="941.2,299.2 930.7,341 927.2,346.2 932.7,321.2 937.2,305.2 		"/>
	</g>
	<g id="Layer_12">
		<polygon class="st6" points="518.2,317.3 584.7,343.5 584.6,347.9 587.1,344.3 638.1,364.4 624.1,435.9 623.1,442.7 567,541.1 
			484.7,500.8 484.7,496.8 482.2,499.6 467.1,492.2 461.4,500.7 411.7,476.1 411.1,469.1 414,465.2 408.5,462.7 407.8,455.5 
			416.1,445.8 417.8,446.6 417.3,443.9 		"/>
		<polygon class="st7" points="584.5,343.5 584.7,348 494.2,480.5 494.2,483.2 492.5,482.5 484.7,493.7 484.7,496.9 482.2,499.7 
			482,492.4 		"/>
		<polygon class="st8" points="624.2,435.6 623.3,442.8 582.2,514.4 583.1,506.2 		"/>
		<polygon class="st8" points="466.8,485.6 467,492.4 461.3,500.7 461,493.4 		"/>
		<path class="st8" d="M567.6,533.9l-0.5,7c-0.2-0.2,15.1-26.5,15.1-26.5l-0.6-5.9L567.6,533.9z"/>
		<polygon class="st6" points="567.3,533.8 566.8,540.8 484.7,501 484.7,493.7 		"/>
		<polygon class="st7" points="494.2,480.1 494.2,483.2 500.7,486.2 508.8,474.5 581.7,508.5 582.2,514.2 583.1,506.2 507.5,470.9 
			499.6,482.8 		"/>
		<polygon class="st6" points="467,485.4 481.8,492.5 482,499.6 467.2,492.4 		"/>
		<polygon class="st6" points="460.7,493.4 461.1,500.5 411.9,476.2 411.1,469 		"/>
		<polygon class="st6" points="407.9,455.5 408.8,462.7 414,465.2 417.4,460.4 		"/>
		<polygon class="st7" points="415.7,443.2 415.8,445.7 489.9,481.2 491.5,479 		"/>
	</g>
	<g id="Layer_36">
		<polygon class="st10" points="145,160.5 158.2,165.5 104.7,199.5 91.2,194.2 		"/>
		<polygon class="st10" points="57.3,216.7 69.5,222.3 31,261.8 93.3,291.8 102.5,285 125.8,296 106.2,311.3 8.2,265.7 		"/>
		<polygon class="st10" points="127.8,297.1 161.5,312.7 152.5,319.9 168.2,327.8 157.8,336.2 108,312 		"/>
		<polygon class="st10" points="169.8,328.6 222.4,353.8 212.5,362.8 205.4,359.3 199.3,364.7 153,342.2 		"/>
		<polygon class="st10" points="233.6,346.5 252.8,355.8 244.1,363.8 290.7,385.8 275.4,401 223.2,375.8 228.4,371 214,363.9 		"/>
		<polygon class="st10" points="341.5,423.5 349.8,414.7 358.3,418.3 366.3,409.8 398,425.3 391.3,433.5 414,444.3 405.7,454.2 		
			"/>
		<polygon class="st10" points="415.9,445.9 489.9,481.2 482.2,492.6 466.8,485.2 460.8,493.6 411.1,469.1 417.5,460.5 407.9,455.2 
					"/>
		<polygon class="st10" points="492.5,482.4 500.6,486.1 509,474.5 581.5,508.5 567.5,534.1 484.6,493.9 		"/>
		<path class="st10" d="M941.1,299.2c0.4,0,21.5,6.9,21.5,6.9l-8.1,33.8l-9.5-3.5l-2.1,7.8l-11.7-3.7L941.1,299.2z"/>
		<path class="st10" d="M917.7,389.8l13.3,4.5l-0.8,4.1l10,3.7l-10.5,45l-11.2-4c0,0-1.6,8.5-2,8.2c-0.4-0.3-13.9-5.5-13.9-5.5
			L917.7,389.8z"/>
		<polygon class="st10" points="902.5,448.3 916.5,453.7 914.6,461.6 925.9,466.5 915.2,512.7 902.6,507.5 899.9,519.4 885.3,513.3 
					"/>
	</g>
	<g id="example__x22_in_escrow_x22_" class="st11">
		<polygon class="st12" points="517.8,317.8 584,343.2 491.5,479 417.8,444.2 		"/>
	</g>
	<g id="shadows" class="st13">
		<polygon class="st14" points="949.7,302.2 944.5,295.2 940,294 937,305.8 937.7,306.2 941.4,299.3 		"/>
		<polygon class="st14" points="930.2,279.2 925.7,273.2 780.7,229 751.7,285.8 760,301.2 760.2,302 758.1,301.1 748.2,321.5 
			735.2,316.8 718.5,349.2 719.7,366.2 721.5,368.5 720,368.2 726,436.5 736,460 738,453.5 730,363 740.2,342.6 746.7,328.8 
			747.9,329.4 760.9,303.4 762.1,295.9 792.9,236.9 		"/>
		<polygon class="st14" points="927,393 925.1,389.6 919.7,387.9 916.2,382.5 903.1,377.8 902.5,379.8 900.1,376.8 749,323.3 
			745,327.7 746.7,328.8 914.7,389 913,395.3 914.3,395.5 917.5,389.8 		"/>
		<path class="st14" d="M633.5,362.8c0,0-3.2-12.2-4-12.5s-49.2-18.8-49.2-18.8l-1.2,2.8l-1.2-3.5l-64.2-25l-1.2,2.5l-1-3.2
			l-69-26.8l-8.8,10l-25.5-10c0,0-0.8,2,0,2.2s26,9.8,26,9.8l-3.5,3.8l1.2,8.5l12.8-13.5l71,27.5l0.5,3.5l1.8-2.2l66.8,25.8l0.2,4
			l2.2-3L633.5,362.8z"/>
		<polygon class="st14" points="444.7,308 433.7,309.5 396.5,351.8 386,347 359.2,376 359.2,386.5 386.2,357.4 396.6,361.9 		"/>
		<polygon class="st14" points="371.2,393.8 360.5,394.2 355,400.5 355,403.2 351,401.5 343.2,410.2 343.5,421.7 349.8,414.5 
			354.3,416.5 354.1,413.5 		"/>
		<polygon class="st14" points="417.5,460.5 410.7,460 411.7,468.2 		"/>
		<polygon class="st14" points="340.7,328.2 330,332.8 339.7,337.1 		"/>
		<path class="st14" d="M58.7,217.4c0,0,7.5-7.9,7.9-7.9s11.8,5,11.8,5l-1.9,5.1l2.8-3.4L99,203.4l5.9-1.8l-34.5,22.8l-0.9-2
			L58.7,217.4z"/>
		<polygon class="st14" points="99.4,187.5 99,189.6 145.2,160.5 157.7,165.2 160.4,172.1 148.4,173.5 241.4,209.6 241.5,211.4 
			243.1,210.3 289.6,228.6 290,230.2 291.5,229.2 340.5,248.4 340.9,250.2 342.4,249 407.4,274.5 406.9,264.8 343.7,240.5 
			342.1,242 341.4,239.6 293.9,221.4 292.2,223.1 291.5,220.6 246.9,203.1 245,204.8 244.9,202.4 160.5,170.1 163.7,159.9 
			151.4,155.1 		"/>
		<polygon class="st14" points="198.2,135.6 198,137.6 336.7,49 741.2,163.1 738.5,159.2 337.3,47 		"/>
	</g>
	<g id="Layer_29">
		<g>
			<g>
				<g>
					<polygon class="st15" points="83.4,525.3 101.6,493.4 119.7,525.3 130.9,525.3 101.6,473.8 72.3,525.3 					"/>
				</g>
			</g>
			<path class="st15" d="M143.5,528.5c-2.2,4.5-5.2,8.7-8.8,12.3c-8.9,9-20.6,13.9-33.2,13.9s-24.3-4.9-33.2-13.9
				c-8.9-9-13.7-20.9-13.7-33.6c0-12.7,4.9-24.6,13.7-33.6c8.9-9,20.6-13.9,33.2-13.9c12.5,0,24.3,4.9,33.2,13.9
				c8.9,9,13.7,20.9,13.7,33.6c0,1.3-0.1,2.5-0.2,3.8h8.1c0.1-1.3,0.1-2.5,0.1-3.8c0-14.9-5.7-28.8-16.1-39.4
				c-10.4-10.5-24.2-16.3-38.8-16.3s-28.5,5.8-38.8,16.3c-10.4,10.5-16.1,24.5-16.1,39.4c0,14.9,5.7,28.8,16.1,39.3
				c10.4,10.5,24.2,16.3,38.8,16.3c14.7,0,28.5-5.8,38.8-16.3c5.2-5.3,9.2-11.4,12-18.1H143.5z"/>
			<g>
				<path class="st15" d="M143.7,518.8h10.5v6.4h-16.9v-32.3h6.4V518.8z"/>
				<path class="st15" d="M181.7,492.9v6.5h-8.4v25.9h-6.4v-25.9h-8.4v-6.5H181.7z"/>
			</g>
			<g>
				<path class="st15" d="M166.7,534.9c0-1.7,0.6-3.2,1.9-4.5c1.3-1.3,2.8-1.9,4.5-1.9c1.7,0,3.2,0.6,4.5,1.9
					c1.3,1.3,1.9,2.8,1.9,4.6c0,1.8-0.6,3.3-1.9,4.5c-1.3,1.2-2.8,1.9-4.6,1.9c-1.6,0-3-0.6-4.3-1.7
					C167.3,538.5,166.7,536.9,166.7,534.9z M168.5,534.9c0,1.4,0.5,2.5,1.4,3.4c0.9,0.9,1.9,1.3,3.1,1.3c1.3,0,2.4-0.4,3.3-1.3
					c0.9-0.9,1.3-2,1.3-3.3c0-1.3-0.4-2.4-1.3-3.3c-0.9-0.9-1.9-1.3-3.2-1.3c-1.3,0-2.3,0.4-3.2,1.3
					C169,532.5,168.5,533.6,168.5,534.9z"/>
				<path class="st15" d="M191.1,530.5h-4.3v3h4.1v1.8h-4.1v5.9H185v-12.4h6.1V530.5z"/>
				<path class="st15" d="M198.4,528.7v12.4h-1.8v-12.4H198.4z"/>
				<path class="st15" d="M213.6,529.4v2.2c-1.1-0.9-2.2-1.4-3.3-1.4c-1.3,0-2.3,0.5-3.2,1.4c-0.9,0.9-1.3,2-1.3,3.3
					c0,1.3,0.4,2.4,1.3,3.3c0.9,0.9,1.9,1.3,3.2,1.3c0.7,0,1.2-0.1,1.7-0.3c0.3-0.1,0.5-0.3,0.8-0.4c0.3-0.2,0.6-0.4,0.9-0.7v2.3
					c-1.1,0.6-2.2,0.9-3.3,0.9c-1.7,0-3.2-0.6-4.5-1.9c-1.2-1.2-1.8-2.8-1.8-4.5c0-1.6,0.5-3,1.5-4.2c1.3-1.5,2.9-2.3,4.9-2.3
					C211.5,528.5,212.6,528.8,213.6,529.4z"/>
				<path class="st15" d="M221,528.7v12.4h-1.8v-12.4H221z"/>
				<path class="st15" d="M227.2,541.1v-13.2l8.9,9.5v-8.6h1.8v13.2l-8.9-9.4v8.7H227.2z"/>
				<path class="st15" d="M251.4,538.1h-5.2l-1.4,3h-2l6.1-13.2l5.8,13.2h-2L251.4,538.1z M250.7,536.4l-1.8-4.2l-1.9,4.2H250.7z"/>
			</g>
			<polygon class="st15" points="186.8,525.2 198.2,505.2 209.6,525.2 216.6,525.2 198.2,492.9 179.7,525.2 			"/>
			<g>
				<path class="st15" d="M103.4,518.8l-1.9,6.6l-1.9-6.6c-0.2-0.7-0.8-1.2-1.5-1.2l-35.8-2.2l35.8-2.2c0.7,0,1.3-0.5,1.5-1.2
					l1.9-6.6l1.9,6.6c0.2,0.7,0.8,1.2,1.5,1.2l114.1,2.2l-114.1,2.2C104.2,517.6,103.6,518.1,103.4,518.8z"/>
			</g>
		</g>
	</g>
</g>
<g id="landmarks">
	<g id="garage">
		<polygon class="st16" points="658.3,308.3 192.8,140.5 336.7,49 748.1,164.4 		"/>
	</g>
	<g id="e125">
		<polygon class="st17" points="792.4,236.8 837.8,250.8 942.6,283.2 928.1,338.4 895.8,327.1 891.8,339 762,295.5 		"/>
		<polygon class="st17" points="941.2,299.4 962.2,306.1 954.5,340.1 944.8,336.6 942.9,344.6 931,340.2 		"/>
	</g>
	<g id="e115">
		<polygon class="st17" points="917.5,389.8 931,394.2 930.2,398.5 940.2,402.2 929.5,446.8 918.5,443 916.5,451.3 902.3,446 		"/>
		<path class="st17" d="M729.8,363.2c0,0,16-34.8,16.8-34.5s168,60.2,168,60.2l-14.8,55.5l-168.2-63.8L729.8,363.2z"/>
	</g>
	<g id="e105">
		<polygon class="st17" points="732,383 738.2,453 881.7,512 899.3,447.2 		"/>
		<polygon class="st17" points="902.3,448.3 916.5,453.5 914.5,461.5 926.2,466.5 915.3,512.8 903,507.7 900.3,518.7 885.5,513 		
			"/>
	</g>
	<g id="s180">
		<polygon class="st17" points="494.5,480.2 499.5,482.8 507.7,470.8 583,506 623.8,436.5 638.2,364.5 586.8,344.2 		"/>
		<polygon class="st17" points="492.6,482.3 484.9,493.3 567.7,533.5 581.8,508.7 508.8,474.3 500.6,486.2 		"/>
	</g>
	<g id="s170">
		<polygon class="st17" points="417.8,443.5 518,317.2 584.5,343.5 491.5,479 		"/>
		<polygon class="st17" points="408,455.4 415.9,445.6 489.8,481.1 482.2,492.2 467.2,484.9 461,493.1 411.5,468.7 417.8,460.7 		
			"/>
	</g>
	<g id="s160">
		<polygon class="st17" points="358.2,387.5 386,357.5 396.4,361.9 444.8,308 431.6,302.6 444.2,288.9 515.4,316.5 415,442.5 
			395,433 401.8,424.2 365.5,407.2 358.2,415.5 354,413 371,393.8 		"/>
		<polygon class="st17" points="341.6,423.2 349.8,414.4 358.9,418.1 366,409.8 398.2,425.1 390.9,433.5 413.2,445 405.5,454.1 		
			"/>
	</g>
	<g id="s150">
		<polygon class="st17" points="214,363.8 228.2,370.9 223.4,375.9 275.4,401 290.4,385.9 244,364 252.8,355.5 233.5,346.2 		"/>
		<polygon class="st17" points="342.7,249 406.8,274.4 394.2,286.8 385.1,283.3 353.9,314.3 349.3,312.2 328.9,332.4 339,337.2 
			292.5,383.2 248.7,363.2 257.2,354.8 235.5,344.7 		"/>
	</g>
	<g id="s140">
		<polygon class="st17" points="291,229.3 340.5,248.3 224.7,352 172,327 		"/>
		<polygon class="st17" points="153.3,342.2 199.3,364.7 205.5,359.2 212.2,363 222,353.7 169.7,328.3 		"/>
	</g>
	<g id="s130">
		<polygon class="st17" points="242.7,210.3 289.5,228.3 233.8,274.2 170.2,326.2 156,319.7 165.2,312 129.8,295.3 		"/>
		<polygon class="st17" points="108,312 127.7,297 161.6,312.6 152.5,320 168.2,327.7 157.9,336.1 		"/>
	</g>
	<g id="s110">
		<polygon class="st17" points="34.3,261.3 70,224.3 148.4,173.4 241.5,209.7 128,294.7 102.8,282.8 93.5,289.5 		"/>
		<polygon class="st17" points="145.2,160.3 158.2,165.3 104.8,199.6 91.5,194.2 		"/>
		<polygon class="st17" points="57,216.7 69.3,222.2 31,261.8 93.4,291.9 102.5,284.9 126.1,296.2 106.1,311.4 8.3,265.7 		"/>
	</g>
</g>
</svg>
