<?xml version="1.0" encoding="utf-8"?>
<!-- Generator: Adobe Illustrator 22.1.0, SVG Export Plug-In . SVG Version: 6.00 Build 0)  -->
<svg version="1.1" xmlns="http://www.w3.org/2000/svg" xmlns:xlink="http://www.w3.org/1999/xlink" x="0px" y="0px" width="1000px"
	 height="600px" viewBox="0 0 1000 600" enable-background="new 0 0 1000 600" xml:space="preserve">
<g id="base">
	<rect fill="#F7F7F7" width="1000" height="600"/>
	<g id="Layer_1" display="none">
		
			<image display="inline" overflow="visible" width="2880" height="1520" xlink:href="../../../../../../Users/hannabethlagerlof/Documents/Bangmac Creative/EVA Air/Alta Website/Interactive Map/Exported Images/5.png"  transform="matrix(0.3472 0 0 0.3472 -6 40)">
		</image>
	</g>
	<g id="Layer_15" display="none">
		
			<image display="inline" overflow="visible" width="656" height="740" xlink:href="../../../../../../Users/hannabethlagerlof/Desktop/Screen Shot 2018-08-21 at 1.37.35 PM.png"  transform="matrix(0.5 0 0 0.5 411.721 84.3536)">
		</image>
	</g>
	<g id="Layer_11">
		<polygon fill="#CCCCCC" points="187.5,112.5 336,22 758,136 667,278 		"/>
	</g>
	<g id="Layer_12">
		<polygon fill="#999999" points="187.25,112.25 189.5,120 665.76,285.78 667.09,278.06 		"/>
	</g>
	<g id="Layer_13">
		<polygon fill="#BCBCBC" points="667.05,277.99 665.74,285.91 756.42,143.38 757.94,136.12 		"/>
	</g>
	<g id="Layer_14">
		<polygon fill="#DEDEDE" points="801.97,209.7 816.6,213.69 787.35,276.19 905.25,314.31 895.94,345.78 772.72,303.67 
			756.76,337.36 739.92,331.15 		"/>
	</g>
	<g id="Layer_16">
		<polygon fill="#2C7599" points="802.14,209.52 802.74,203.16 814.86,180.74 964.22,222.85 953.46,263.83 952.32,265.23 
			953.04,265.54 952.37,268.41 951.36,269.88 951.77,270.11 948.18,284.03 946.78,284.95 947.6,285.38 934.14,337.21 933.13,338.46 
			933.83,338.69 928.07,360.56 926.83,361.73 927.6,362.04 922.93,380.48 921.53,381.57 922.55,382.2 896.66,480.35 892.11,487.93 
			744.28,428.85 735.79,340.09 738.22,331.91 739.43,329.49 756.39,336.15 772.75,302.83 895.45,344.33 905.14,314.94 
			786.69,276.17 786.69,269.8 811.17,223.17 811.92,223.33 811.75,221.75 815.5,213.42 		"/>
	</g>
	<g id="Layer_20">
		<polygon fill="#265975" points="24,238.33 20.67,230.67 60.67,191.33 139.67,144 643,332.33 642.67,336 626.67,414 578.33,495.67 
					"/>
	</g>
	<g id="Layer_19">
		<polygon fill="#193751" points="20.55,230.22 24.07,238.24 109.94,278.25 110.93,277.68 108.9,270.92 116.7,265.34 150.62,280.88 
			143,286.75 146.13,294.83 147.25,293.88 147.75,295.5 578.72,496.02 579.31,487.58 145.25,287.5 155.12,280.25 116.95,262.8 
			106.86,269.99 		"/>
	</g>
	<g id="Layer_24">
		<polygon fill="#3FC0E8" points="747.54,420.82 744.67,429.09 892.65,487.98 896.87,479.88 		"/>
	</g>
	<g id="Layer_22">
		<polygon fill="#24A1D3" points="108.35,270.74 116.83,265.21 150.75,280.78 143.31,286.84 		"/>
		<polygon fill="#24A1D3" points="806.5,477.5 810.17,469.5 816.83,450.67 883.33,477.33 878.17,497.33 873.67,505.17 		"/>
		<polygon fill="#24A1D3" points="919,407 946.67,417 934,472.83 929.83,480.5 900.67,468.83 914.83,414.67 		"/>
		<polygon fill="#24A1D3" points="921.67,382 922.67,380.33 927.5,362.5 911.67,357 907.17,374.5 905.83,376.5 		"/>
		<polygon fill="#24A1D3" points="951.5,270.17 937.5,265.67 933.83,279.5 932.83,281.17 947.33,285.33 948.5,283.67 		"/>
		<polygon fill="#24A1D3" points="963.33,236.17 986,242.67 980.83,265.5 976.67,273.5 953.83,266.5 958,258.83 		"/>
		<polygon fill="#24A1D3" points="258.22,351.99 265.7,345.72 319.59,370.61 321.18,378.46 314.16,385.67 260.36,360.35 		"/>
		<polygon fill="#24A1D3" points="323.33,382.3 330.26,375.66 387.42,402.13 388.45,409.81 382.09,417.67 324.86,390.63 		"/>
		<polygon fill="#24A1D3" points="397.44,406.92 459.31,435.39 459.48,442.8 453.39,451.19 391.68,422.06 391.02,414.17 		"/>
	</g>
	<g id="Layer_23">
		<polygon fill="#3FC0E8" points="579.25,487.25 578.5,496 626.5,414.5 642.5,338.5 643,332.5 627.25,406.75 		"/>
		<polygon fill="#3FC0E8" points="453,443 459.25,435.38 459.5,443 453.5,451.25 		"/>
		<polygon fill="#3FC0E8" points="381.11,409.41 387.66,402.19 388.56,409.89 382.16,417.58 		"/>
		<polygon fill="#3FC0E8" points="312.67,377.53 319.71,370.66 321.17,378.26 314.29,385.54 		"/>
		<polygon fill="#3FC0E8" points="806.58,477.34 810.36,469.47 878.16,496.56 873.92,505.19 		"/>
		<polygon fill="#3FC0E8" points="900.56,469.17 904.94,461.15 934.61,472.95 929.76,480.67 		"/>
		<polygon fill="#3FC0E8" points="906,376.35 907.21,374.13 923.11,379.55 921.78,381.94 		"/>
		<polygon fill="#3FC0E8" points="953.67,266.38 957.91,258.36 981.06,265.63 977.28,273.5 		"/>
	</g>
	<g id="Layer_18">
		<polygon fill="#2C7599" points="108.39,270.74 143.16,286.79 146.05,294.7 111.4,278.76 		"/>
		<polygon fill="#2C7599" points="258.26,351.97 260.49,360.33 314.3,385.51 312.52,377.49 		"/>
		<polygon fill="#2C7599" points="323.33,382.28 325,390.52 382.16,417.6 381.05,409.35 		"/>
		<polygon fill="#2C7599" points="391.19,414.14 391.97,422.17 453.58,451.14 453.03,443 		"/>
	</g>
	<g id="Layer_21">
		<polygon fill="#193751" points="735.75,339.88 738.38,331 747.38,420.62 744.5,429.25 		"/>
		<polygon fill="#193751" points="918.89,407.41 905.09,461.48 900.87,469.37 914.67,414.45 		"/>
		<polygon fill="#193751" points="906.99,374.68 906.18,376.62 902.78,375.63 909.3,354.04 928.34,360.66 927.01,362.08 
			911.74,356.76 		"/>
		<polygon fill="#193751" points="932.65,338.69 934.15,336.93 902.64,326.61 908.21,308.55 786.52,269.66 786.67,276.23 
			904.81,314.93 895.85,344.94 897.07,345.35 902.1,328.37 		"/>
		<polygon fill="#193751" points="933.16,281.23 937.85,265.68 951.3,269.9 951.59,269.5 951.82,269.17 952.38,268.39 935.46,263.3 
			930.41,280.47 		"/>
		<polygon fill="#193751" points="957.7,258.78 953.8,266.31 959.45,243.58 963.47,236.04 		"/>
		<polygon fill="#193751" points="953.44,263.91 952.5,265.28 811.74,223.35 811.74,221.6 		"/>
		<polygon fill="#193751" points="802.19,209.54 802.57,203.13 818.77,207.9 815.88,213.68 		"/>
		<polygon fill="#193751" points="813.68,456.31 816.58,450.76 810.12,469.64 806.29,477.56 		"/>
		<polygon fill="#3FC0E8" points="948.6,283.16 947.45,285.32 932.84,281.18 933.85,279.07 		"/>
	</g>
	<g id="shadows" opacity="0.55">
		<polygon fill="#3C4454" points="89.71,173.17 103.21,159.83 169.92,119.8 604.97,273.71 610.86,291.09 603.73,317.46 
			139.2,143.38 		"/>
		<polygon fill="#3C4454" points="209.97,98.18 211.36,92.91 340.35,15.52 713.72,113.16 720.75,124.05 719.51,125.57 335.91,21.34 
					"/>
		<polygon fill="#3C4454" points="459.08,435.59 458.41,433.18 397.55,405.1 390.97,405.37 391.78,408.73 394.6,410.47 
			397.55,406.85 		"/>
		<polygon fill="#3C4454" points="387.08,402.14 386.67,400.13 329.71,374.07 324.61,374.61 325.28,377.83 327.16,378.91 
			330.25,376.08 		"/>
		<polygon fill="#3C4454" points="319.5,370.84 318.97,368.83 266.04,344.65 260.53,344.78 261.34,348.14 262.55,348.68 
			265.77,346.13 		"/>
		<path fill="#3C4454" d="M793.38,448.13c0.69-0.23,21.27,0.69,21.27,0.69l66.33,26.08l-0.69,1.6l-64.28-24.25l-2.06,3.89
			L793.38,448.13z"/>
		<polygon fill="#3C4454" points="905.02,461.23 919.35,407.24 914.78,414.71 900.66,469.12 		"/>
		<polygon fill="#3C4454" points="963.37,236.13 957.77,258.76 953.82,266.65 959.43,243.4 		"/>
		<path fill="#3C4454" d="M888.82,316.28l1.66,2.7l-2.28-0.83l-5.61,16.61l-120.03-40.7l-15.99,32.39l-3.84-1.44l59.39-115.89
			l0.25-6.12l12.75-22.5l93.15,26.17l-3.76-4.48l-6.81-1.97l0.18-1.61l-10.57-13.08l-125.58-34.4l-11.47,18.27l6.09,10.57
			L698.32,276l-11.64-3.76l-0.9,1.79l2.69,68.07l8.42,20.6l40.49,15.23l2.15,5.55l-0.05-0.53l5.18,46.19l2.74-8.69l-9.22-88.86
			l0.64-1.18c6.88,2.45,17.73,6.43,17.73,6.43l16.41-33.64l123.76,42.15l11.21-36.34l-17.24,1.25L888.82,316.28z"/>
		<polygon fill="#3C4454" points="818.84,208.09 804.51,210.38 802.02,214.95 803.27,217.23 800.78,216.82 778.76,262.29 
			786.45,276.41 786.66,269.98 811.15,223.11 812.01,223.35 811.46,222.01 		"/>
	</g>
</g>
<g id="landmarks">
	<g id="s500">
		<polygon fill="#3A9BC1" points="20.61,230.02 60.76,191.07 139.13,143.47 643.25,332.19 627.15,406.95 579.31,487.49 
			145.38,287.71 155.48,280.26 116.9,262.92 106.84,269.78 		"/>
		<polygon fill="#3A9BC1" points="108.21,270.84 116.59,265.21 150.57,280.75 143.1,286.69 		"/>
		<polygon fill="#3A9BC1" points="258.14,351.75 265.91,345.5 319.7,370.64 312.53,377.5 		"/>
		<polygon fill="#3A9BC1" points="323.2,382.22 330.36,375.67 387.8,402.34 381.1,409.65 		"/>
		<polygon fill="#3A9BC1" points="391,413.92 397.4,407.06 459.26,435.4 453.02,442.87 		"/>
	</g>
	<g id="e505">
		<polygon fill="#3A9BC1" points="738.35,331.03 739.26,329.52 756.09,336.14 772.78,302.61 896.67,345.01 902.23,328.32 
			933.8,338.7 928.24,360.8 908.99,354.18 902.83,375.53 922.37,382.3 896.82,479.72 747.37,420.93 		"/>
		<polygon fill="#3A9BC1" points="911.86,357.17 927.85,362.5 923.33,379.61 907.34,373.96 		"/>
		<polygon fill="#3A9BC1" points="918.98,406.54 946.77,416.92 934.56,473.02 904.95,461.34 		"/>
		<path fill="#3A9BC1" d="M816.65,450.43c0,0.78-6.23,18.96-6.23,18.96l67.27,27.01l5.19-18.96L816.65,450.43z"/>
	</g>
	<g id="e515">
		<polygon fill="#3A9BC1" points="811.11,223.23 786.49,269.91 908.12,308.76 902.65,326.81 934.02,336.84 947.69,285.6 
			930.19,280.49 935.47,263.35 952.43,268.45 952.98,265.72 		"/>
		<polygon fill="#3A9BC1" points="937.85,265.9 951.52,270.1 948.79,283.23 934.2,279.03 		"/>
	</g>
	<g id="e525">
		<polygon fill="#3A9BC1" points="802.72,202.99 815.12,180.56 964.47,222.5 953.53,263.9 811.65,221.41 818.58,207.73 		"/>
		<polygon fill="#3A9BC1" points="963.38,236.18 986.17,242.74 980.88,265.9 957.72,259.41 		"/>
	</g>
	<g id="garage-5">
		<polygon fill="#DEDEDE" points="187.53,112.1 336.29,21.29 757.48,135.83 666.21,278.66 		"/>
	</g>
</g>
<g id="nopointer">
	<g id="logo_1_">
		<g id="logo">
			<g>
				<g>
					<polygon fill="#2B3E68" points="83.45,525.26 101.59,493.43 119.74,525.26 130.92,525.26 101.59,473.8 72.26,525.26 					"/>
				</g>
			</g>
			<path fill="#2B3E68" d="M143.54,528.48c-2.23,4.5-5.17,8.67-8.79,12.34c-8.86,8.97-20.63,13.91-33.16,13.91
				s-24.3-4.94-33.16-13.91c-8.86-8.97-13.73-20.9-13.73-33.58c0-12.69,4.88-24.61,13.73-33.58c8.86-8.97,20.63-13.91,33.16-13.91
				c12.53,0,24.3,4.94,33.16,13.91c8.86,8.97,13.73,20.9,13.73,33.58c0,1.27-0.06,2.52-0.16,3.77h8.07
				c0.08-1.25,0.14-2.51,0.14-3.77c0-14.87-5.71-28.84-16.09-39.35c-10.38-10.51-24.17-16.3-38.85-16.3s-28.47,5.79-38.85,16.3
				c-10.38,10.51-16.09,24.49-16.09,39.35c0,14.86,5.71,28.84,16.09,39.35c10.38,10.51,24.17,16.3,38.85,16.3
				c14.68,0,28.47-5.79,38.85-16.3c5.2-5.27,9.23-11.41,11.96-18.1H143.54z"/>
			<g>
				<path fill="#2B3E68" d="M143.7,518.79h10.47v6.42h-16.85v-32.32h6.38V518.79z"/>
				<path fill="#2B3E68" d="M181.68,492.89v6.46h-8.4v25.9h-6.38v-25.9h-8.45v-6.46H181.68z"/>
			</g>
			<g>
				<path fill="#2B3E68" d="M166.65,534.87c0-1.74,0.63-3.24,1.89-4.5c1.26-1.25,2.77-1.88,4.53-1.88c1.74,0,3.24,0.63,4.49,1.89
					c1.25,1.26,1.88,2.78,1.88,4.55c0,1.78-0.63,3.29-1.89,4.54c-1.26,1.25-2.79,1.87-4.57,1.87c-1.58,0-3-0.55-4.26-1.66
					C167.35,538.46,166.65,536.86,166.65,534.87z M168.52,534.9c0,1.37,0.45,2.5,1.36,3.38c0.9,0.88,1.95,1.32,3.13,1.32
					c1.28,0,2.37-0.45,3.25-1.35c0.88-0.91,1.32-2.02,1.32-3.32c0-1.32-0.44-2.43-1.31-3.32c-0.87-0.9-1.94-1.35-3.22-1.35
					c-1.27,0-2.35,0.45-3.23,1.35C168.95,532.49,168.52,533.59,168.52,534.9z"/>
				<path fill="#2B3E68" d="M191.13,530.49h-4.26v2.98h4.11v1.76h-4.11v5.9h-1.85v-12.4h6.11V530.49z"/>
				<path fill="#2B3E68" d="M198.36,528.73v12.4h-1.85v-12.4H198.36z"/>
				<path fill="#2B3E68" d="M213.59,529.4v2.22c-1.07-0.9-2.17-1.36-3.31-1.36c-1.26,0-2.32,0.46-3.18,1.37
					c-0.87,0.91-1.3,2.02-1.3,3.34c0,1.3,0.43,2.4,1.3,3.29c0.87,0.89,1.93,1.34,3.19,1.34c0.65,0,1.2-0.11,1.66-0.32
					c0.25-0.11,0.52-0.25,0.79-0.43c0.27-0.18,0.56-0.4,0.86-0.66v2.26c-1.06,0.6-2.17,0.91-3.33,0.91c-1.75,0-3.24-0.62-4.48-1.85
					c-1.23-1.25-1.85-2.75-1.85-4.51c0-1.58,0.52-2.99,1.55-4.22c1.27-1.51,2.91-2.27,4.92-2.27
					C211.51,528.49,212.57,528.79,213.59,529.4z"/>
				<path fill="#2B3E68" d="M221.02,528.73v12.4h-1.85v-12.4H221.02z"/>
				<path fill="#2B3E68" d="M227.21,541.13v-13.24l8.93,9.46v-8.61h1.85v13.15l-8.93-9.43v8.68H227.21z"/>
				<path fill="#2B3E68" d="M251.44,538.12h-5.24l-1.36,3.01h-1.99l6.06-13.18l5.84,13.18h-2.02L251.44,538.12z M250.69,536.36
					l-1.82-4.21l-1.9,4.21H250.69z"/>
			</g>
			<polygon fill="#2B3E68" points="186.77,525.2 198.16,505.21 209.56,525.2 216.58,525.2 198.16,492.89 179.74,525.2 			"/>
			<g>
				<path fill="#2B3E68" d="M103.42,518.79l-1.87,6.55l-1.87-6.55c-0.19-0.68-0.79-1.16-1.49-1.2l-35.79-2.16l35.79-2.16
					c0.7-0.04,1.29-0.52,1.49-1.2l1.87-6.55l1.87,6.55c0.19,0.68,0.79,1.16,1.49,1.2L219,515.43l-114.08,2.16
					C104.22,517.63,103.62,518.11,103.42,518.79z"/>
			</g>
		</g>
	</g>
</g>
</svg>
