<?xml version="1.0" encoding="utf-8"?>
<!-- Generator: Adobe Illustrator 22.1.0, SVG Export Plug-In . SVG Version: 6.00 Build 0)  -->
<svg version="1.1" xmlns="http://www.w3.org/2000/svg" xmlns:xlink="http://www.w3.org/1999/xlink" x="0px" y="0px" width="1000px"
	 height="600px" viewBox="0 0 1000 600" enable-background="new 0 0 1000 600" xml:space="preserve">
<g id="base">
	<g id="Background_Color">
		<rect fill="#F7F7F7" width="1000" height="600"/>
	</g>
	<g id="lobby">
		<polygon fill="#DEDEDE" points="408,280 440.16,292.67 431.83,302.33 432,308.33 441.33,312.17 397,362 386.16,357.33 
			358.33,387.67 359,393.33 368,397.67 354,413.33 354,416.17 350,414.17 347.58,417.08 294.33,391.58 294.21,389.92 340.5,343.17 
			339.66,337.5 334.66,335 350.33,319.17 354.66,321 386,290.17 394.66,293.5 		"/>
		<polygon fill="#DEDEDE" points="760.79,303.25 747.83,329 914.58,388.67 913.29,394.96 914.71,395.08 917.58,389.67 
			929.96,393.83 940.33,351 893.87,334.88 889.12,347.25 		"/>
		<g id="Layer_25">
			<polygon fill="#CCCCCC" points="192.75,140.25 336.75,48.75 747.5,165 659,309 			"/>
		</g>
	</g>
	<g id="Layer_8">
		<polygon fill="#999999" points="192.79,140.28 194.75,146.88 657.85,316.16 658.25,308.38 		"/>
		<polygon fill="#999999" points="294.29,389.92 294.41,391.67 347.5,417.17 348.54,415.92 		"/>
	</g>
	<g id="Layer_9">
		<polygon fill="#BCBCBC" points="747.41,164.86 746.42,170.97 657.76,316.52 658.48,308.77 		"/>
	</g>
	<g id="Layer_10">
		<path fill="#EF4C20" d="M431.83,302.67l0.17,6.08l9,3.25l-44.5,49.75l-10.5-4.5l-27.75,30.25l0.75,5.83l8.75,4.42L354,413.5
			l0.42,3.08l-4.59-2.25l-8.08,9.17l1.25,7.25l63.5,30.75l1.75-1.5l-0.33-4.58l8.25-9.75l1.42,0.83l-0.08-2.67L516.25,320
			c-0.75-0.25-1-3.5-1-3.5l-71-27.75L431.83,302.67z"/>
		<polygon fill="#EF4C20" points="746.5,328.75 914.5,389 913,395.5 914,396.17 917.66,389.67 931.16,394.25 930.33,398.5 
			940.41,402.08 929.5,447.75 925.25,454.75 916.75,451.75 914.5,461.5 926.25,466.5 915,513 910.75,520.5 901.25,516.5 
			900.25,520.25 896.25,527.25 881,521.25 898.25,455.75 881.5,512.75 877.25,520 736,461 727.5,370.25 729.75,363 		"/>
		<polygon fill="#EF4C20" points="762,296 761.5,303 888.75,346.75 892,340 893.75,335 924.41,345.42 928.25,338.58 933.16,319.5 
			927.16,346.5 940.25,350.75 943.25,345.25 950.5,347.5 954.5,340.5 962.5,306.25 941.5,299.25 937.75,305.75 943,283 
			792.33,236.5 		"/>
		<polygon fill="#EF4C20" points="70.31,224.25 71.25,223.31 100.75,204.25 94,201.25 91.37,194.31 145.25,160.44 158.06,165.31 
			160.18,172.12 154.87,175.94 195.16,191.62 196.58,192.17 241.5,209.62 241.66,211.29 243,210.29 290.04,228.58 290.12,230.25 
			291.33,229.21 341.03,248.47 341.07,250.12 342.36,248.91 407.91,274.75 408.16,279.75 394.62,293.54 386,290.08 354.75,321.12 
			350.33,319.33 334.75,334.96 339.75,337.33 340.58,343.12 294.21,389.88 294.37,391.58 292.16,390.5 292.83,393.42 277.83,408.67 
			225.83,383.33 223.31,375.88 224.06,375.12 216,371.12 215.62,369.5 214.5,370.56 207.87,367.25 202.12,372.62 156,349.81 
			153.12,342.12 154.68,340.81 110.75,319.44 110.25,318.12 108.93,318.62 92.62,310.5 11.75,272.38 8.18,265.81 32.18,241.94 
			57.43,216.69 69.75,222.38 		"/>
		<polygon fill="#EF4C20" points="518.16,317.33 584.68,343.5 584.56,347.94 587.12,344.31 638.12,364.44 624.12,435.88 
			623.06,442.69 567,541.06 484.75,500.81 484.75,496.78 482.16,499.62 467.08,492.25 461.37,500.67 411.75,476.12 411.12,469.12 
			414,465.25 408.5,462.67 407.83,455.5 416.06,445.75 417.81,446.62 417.33,443.92 		"/>
		<polygon fill="#CE310D" points="584.5,343.5 584.75,348 494.25,480.5 494.25,483.25 492.5,482.5 484.71,493.67 484.71,496.88 
			482.25,499.67 482,492.38 		"/>
		<polygon fill="#EF7A5B" points="624.18,435.62 623.31,442.75 582.18,514.38 583.12,506.25 		"/>
		<polygon fill="#EF7A5B" points="466.79,485.58 467,492.42 461.33,500.67 460.96,493.38 		"/>
		<path fill="#EF7A5B" d="M567.62,533.88l-0.54,7.04c-0.17-0.25,15.1-26.54,15.1-26.54l-0.62-5.94L567.62,533.88z"/>
		<polygon fill="#EF4C20" points="567.33,533.83 566.83,540.83 484.66,500.96 484.71,493.71 		"/>
		<polygon fill="#CE310D" points="494.16,480.08 494.16,483.17 500.66,486.17 508.83,474.5 581.66,508.5 582.16,514.17 
			583.08,506.17 507.5,470.92 499.58,482.83 		"/>
		<polygon fill="#EF4C20" points="466.96,485.38 481.83,492.5 482.04,499.62 467.21,492.38 		"/>
		<polygon fill="#EF4C20" points="460.75,493.38 461.12,500.5 411.87,476.25 411.12,469 		"/>
		<polygon fill="#EF4C20" points="407.92,455.5 408.75,462.67 414,465.25 417.42,460.42 		"/>
		<polygon fill="#CE310D" points="415.67,443.17 415.75,445.67 489.87,481.25 491.5,479 		"/>
	</g>
	<g id="Layer_34">
		<polygon fill="#EF4C20" points="275.68,401.31 277.75,408.94 225.56,383.31 223.25,375.81 		"/>
		<polygon fill="#EF4C20" points="214,363.94 215.96,371.21 223.81,375.06 228.18,371 		"/>
		<polygon fill="#EF4C20" points="91.5,194.38 104.66,199.58 105.12,201.5 100.62,204.38 93.87,201.25 		"/>
		<polygon fill="#EF4C20" points="8.16,265.75 106.12,311.41 108.88,318.56 11.69,272.31 		"/>
		<path fill="#EF4C20" d="M108.16,312l49.5,24.17l0.58,2.08l-3.42,2.75l-44-21.58C110.83,319.42,108,312,108.16,312z"/>
		<polygon fill="#EF4C20" points="153.25,342.42 155.75,349.75 201.75,372.42 199.25,364.92 		"/>
		<polygon fill="#EF4C20" points="205.5,359.75 207.75,367.33 214.16,370.5 212.04,363 		"/>
	</g>
	<g id="Layer_33">
		<polygon fill="#CE310D" points="225,354.38 224.58,351.83 171.37,326.62 156.12,319.5 165.12,311.75 102.87,282.88 93.5,289.5 
			34.12,261.25 70.25,224.12 69.75,222.25 30.87,261.88 54.62,273.5 93.25,291.75 102.5,284.88 126.12,296.12 106.25,311.25 
			109.12,318.62 110.22,318.09 108,311.97 127.87,297 161.75,312.75 152.5,320 168.25,327.75 157.75,336 158.25,338.12 170,328.62 
			222.5,353.75 212.29,363.04 214.41,370.62 215.58,369.58 214,363.94 		"/>
		<polygon fill="#CE310D" points="515.5,316.5 516,319.83 417.33,443.83 417.83,446.5 415.83,445.67 407.83,455.33 408.16,459.5 
			406.5,461.5 405.5,454 413.33,445 390.83,433.67 398.33,425.33 366.16,409.83 358.17,418.25 354.42,416.42 354.16,413.33 
			358,415.33 365.83,407.17 402.16,424 395.16,433 414.83,442.17 439,412.67 		"/>
		<polygon fill="#CE310D" points="235.37,344.62 257.43,354.81 248.68,363.25 292.81,383.88 294.16,391.5 292.25,390.38 
			291.25,386.12 244.16,364 252.87,355.81 235.62,347.44 		"/>
		<polygon fill="#CE310D" points="158.33,165.33 160.25,172.25 154.91,176 148.5,173.62 105.25,201.38 104.87,199.38 		"/>
		<polygon fill="#CE310D" points="340.5,248.5 341.16,250.42 235.66,344.83 236.16,347.58 233.66,346.42 225.25,354.17 
			224.83,351.67 		"/>
		<polygon fill="#CE310D" points="289.75,228.58 290.33,230.17 172.25,326.92 173.16,329.83 171.41,328.92 170.33,326 		"/>
		<polygon fill="#CE310D" points="241.33,209.58 241.66,211.33 130.25,295.25 130.71,298 129.16,297.33 128.25,294.42 		"/>
	</g>
	<g id="Layer_32">
		<polygon fill="#DF2D0F" points="431.66,302.67 445,308 441.16,311.83 431.83,308.33 		"/>
		<polygon fill="#CE310D" points="358.5,387.83 371.16,393.83 367.75,397.67 358.83,393.17 		"/>
		<polygon fill="#EF4C20" points="341.66,423.33 405.5,454 406.5,461.5 342.83,430.67 		"/>
	</g>
	<g id="Layer_30">
		<polygon fill="#EF7A5B" points="928.16,338.83 924.37,345.5 893.75,335.12 896.25,327.75 		"/>
		<polygon fill="#EF7A5B" points="945.12,337.25 954.5,340.67 951.16,347.83 943.25,345.25 		"/>
		<polygon fill="#EF7A5B" points="943.25,345.25 940.5,351 927.25,346.5 930.5,340.75 		"/>
		<polygon fill="#EF7A5B" points="919,443.75 929.75,447.75 925.62,455 917.12,451.75 		"/>
		<polygon fill="#EF7A5B" points="903.12,508.5 915.25,513.38 910.87,520.62 901.37,516.62 		"/>
		<polygon fill="#EF7A5B" points="885.12,513.75 881,521.12 896.25,527.38 900.37,520.38 		"/>
		<polygon fill="#EF7A5B" points="738.33,453.67 736,461 877.33,519.67 881.66,512.67 		"/>
		<path fill="#EF7A5B" d="M199.56,365l2.62,7.62c0,0,5.81-5.06,5.69-5.38s-2.31-7.5-2.31-7.5L199.56,365z"/>
		<polygon fill="#EF7A5B" points="275.87,401.19 290.93,386.12 292.68,393.31 277.75,408.81 		"/>
		<polygon fill="#EF7A5B" points="293.08,383.83 294.16,389.75 340.5,343.17 339.75,337.42 		"/>
		<polygon fill="#EF7A5B" points="407.83,274.42 408.25,279.92 394.66,293.58 386.08,290.25 355,321.08 350.5,319.17 334.66,335 
			329.83,332.67 349.75,313.17 354.16,315.25 385.41,284.33 394.41,287.67 		"/>
		<polygon fill="#EF7A5B" points="892,339.83 889,347.25 761.12,303.5 762,296 853,326.62 		"/>
	</g>
	<g id="Layer_28">
		<polygon fill="#DF2D0F" points="729.5,363.5 727.5,371.25 729,388.5 729.87,388.75 729.5,391.25 736,461 738.33,453.67 
			732,383.12 		"/>
	</g>
	<g id="Layer_27">
		<polygon fill="#CE310D" points="731.5,380.83 730.82,382.96 729,388.67 729.87,388.81 732.06,383.06 899.33,447.17 897.16,454.83 
			880.83,521.33 885.16,513.83 902.5,448.33 916.66,453.67 917.16,451.67 902.66,446 917.83,390 914.66,395.33 912.83,395.17 
			899.5,444.67 		"/>
		<polygon fill="#CE310D" points="941.25,299.25 930.75,341 927.25,346.25 932.75,321.25 937.25,305.25 		"/>
	</g>
	<g id="Layer_36">
		<polygon fill="#FF6633" points="145,160.5 158.17,165.5 104.67,199.5 91.17,194.17 		"/>
		<polygon fill="#FF6633" points="57.33,216.67 69.5,222.33 31,261.83 93.33,291.83 102.5,285 125.83,296 106.17,311.33 
			8.17,265.67 		"/>
		<polygon fill="#FF6633" points="127.75,297.08 161.5,312.67 152.5,319.92 168.17,327.75 157.75,336.17 108,312 		"/>
		<polygon fill="#FF6633" points="169.75,328.62 222.38,353.75 212.5,362.75 205.42,359.33 199.33,364.67 153,342.25 		"/>
		<polygon fill="#FF6633" points="233.62,346.5 252.75,355.75 244.12,363.75 290.67,385.75 275.42,401 223.25,375.75 228.38,371 
			214,363.88 		"/>
		<polygon fill="#FF6633" points="341.5,423.5 349.83,414.67 358.33,418.33 366.33,409.83 398,425.33 391.33,433.5 414,444.33 
			405.67,454.17 		"/>
		<polygon fill="#FF6633" points="415.88,445.88 489.88,481.25 482.25,492.62 466.75,485.25 460.75,493.62 411.12,469.12 
			417.5,460.5 407.88,455.25 		"/>
		<polygon fill="#FF6633" points="492.5,482.38 500.62,486.12 509,474.5 581.5,508.5 567.5,534.12 484.62,493.88 		"/>
		<path fill="#FF6633" d="M941.09,299.22c0.42,0,21.51,6.93,21.51,6.93l-8.06,33.82l-9.48-3.54l-2.12,7.78l-11.74-3.68
			L941.09,299.22z"/>
		<path fill="#FF6633" d="M917.74,389.77l13.3,4.53l-0.85,4.1l10.05,3.68l-10.47,44.99l-11.18-3.96c0,0-1.56,8.49-1.98,8.21
			c-0.42-0.28-13.87-5.52-13.87-5.52L917.74,389.77z"/>
		<polygon fill="#FF6633" points="902.46,448.35 916.47,453.72 914.63,461.65 925.95,466.46 915.19,512.72 902.6,507.49 
			899.91,519.37 885.34,513.29 		"/>
	</g>
	<g id="example__x22_in_escrow_x22_" display="none" opacity="0.68">
		<polygon display="inline" fill="#CE310D" points="517.75,317.75 584,343.25 491.5,479 417.75,444.25 		"/>
	</g>
	<g id="shadows" opacity="0.55">
		<polygon fill="#3C4454" points="949.75,302.25 944.5,295.25 940,294 937,305.75 937.68,306.25 941.37,299.31 		"/>
		<polygon fill="#3C4454" points="930.25,279.25 925.75,273.25 780.75,229 751.75,285.75 760,301.25 760.16,302 758.08,301.08 
			748.16,321.5 735.25,316.75 718.5,349.25 719.75,366.25 721.5,368.5 720,368.25 726,436.5 736,460 738,453.5 730,363 
			740.25,342.62 746.75,328.75 747.87,329.38 760.87,303.38 762.12,295.88 792.87,236.88 		"/>
		<polygon fill="#3C4454" points="927,393 925.12,389.62 919.75,387.88 916.25,382.5 903.12,377.75 902.5,379.75 900.12,376.75 
			749,323.33 745,327.67 746.75,328.75 914.66,389 913,395.33 914.33,395.5 917.5,389.83 		"/>
		<path fill="#3C4454" d="M633.5,362.75c0,0-3.25-12.25-4-12.5s-49.25-18.75-49.25-18.75l-1.25,2.75l-1.25-3.5l-64.25-25l-1.25,2.5
			l-1-3.25l-69-26.75l-8.75,10l-25.5-10c0,0-0.75,2,0,2.25s26,9.75,26,9.75l-3.5,3.75l1.25,8.5L444.5,289l71,27.5l0.5,3.5l1.75-2.25
			l66.75,25.75l0.25,4l2.25-3L633.5,362.75z"/>
		<polygon fill="#3C4454" points="444.75,308 433.75,309.5 396.5,351.75 386,347 359.25,376 359.25,386.5 386.25,357.38 
			396.62,361.88 		"/>
		<polygon fill="#3C4454" points="371.17,393.83 360.5,394.25 355,400.5 355,403.25 351,401.5 343.25,410.25 343.5,421.67 
			349.83,414.5 354.33,416.5 354.08,413.5 		"/>
		<polygon fill="#3C4454" points="417.5,460.5 410.75,460 411.75,468.25 		"/>
		<polygon fill="#3C4454" points="340.75,328.25 330,332.75 339.68,337.06 		"/>
		<path fill="#3C4454" d="M58.75,217.38c0,0,7.5-7.88,7.88-7.88s11.75,5,11.75,5l-1.88,5.12l2.75-3.38L99,203.38l5.88-1.75
			l-34.5,22.75l-0.88-2L58.75,217.38z"/>
		<polygon fill="#3C4454" points="99.37,187.5 99,189.62 145.25,160.5 157.75,165.25 160.37,172.12 148.37,173.5 241.38,209.62 
			241.5,211.38 243.08,210.29 289.62,228.62 290,230.25 291.5,229.25 340.5,248.38 340.87,250.25 342.37,249 407.37,274.5 
			406.87,264.75 343.75,240.5 342.12,242 341.37,239.62 293.87,221.38 292.25,223.12 291.5,220.62 246.87,203.12 245,204.75 
			244.87,202.38 160.5,170.12 163.75,159.88 151.37,155.12 		"/>
		<polygon fill="#3C4454" points="198.25,135.62 198,137.62 336.75,49 741.25,163.12 738.5,159.25 337.33,47 		"/>
	</g>
</g>
<g id="landmarks">
	<g id="garage-1">
		<polygon fill="#DEDEDE" points="658.33,308.33 192.75,140.46 336.71,49 748.08,164.42 		"/>
	</g>
	<g id="e125">
		<polygon fill="#FF9966" points="792.38,236.75 837.75,250.75 942.62,283.25 928.12,338.42 895.75,327.12 891.75,339 762,295.5 		
			"/>
		<polygon fill="#FF9966" points="941.25,299.38 962.25,306.12 954.5,340.12 944.75,336.62 942.88,344.62 931,340.25 		"/>
	</g>
	<g id="e115">
		<polygon fill="#FF9966" points="917.5,389.83 931,394.17 930.17,398.5 940.17,402.17 929.5,446.83 918.5,443 916.5,451.33 
			902.33,446 		"/>
		<path fill="#FF9966" d="M729.75,363.25c0,0,16-34.75,16.75-34.5s168,60.25,168,60.25l-14.75,55.5L731.5,380.75L729.75,363.25z"/>
	</g>
	<g id="e105">
		<polygon fill="#FF9966" points="732,383 738.17,453 881.67,512 899.33,447.17 		"/>
		<polygon fill="#FF9966" points="902.33,448.33 916.5,453.5 914.5,461.5 926.17,466.5 915.33,512.83 903,507.67 900.33,518.67 
			885.5,513 		"/>
	</g>
	<g id="s180">
		<polygon fill="#FF9966" points="494.5,480.17 499.5,482.83 507.67,470.83 583,506 623.75,436.5 638.17,364.5 586.83,344.17 		"/>
		<polygon fill="#FF9966" points="492.58,482.33 484.92,493.33 567.67,533.5 581.83,508.67 508.83,474.33 500.58,486.25 		"/>
	</g>
	<g id="s170">
		<polygon fill="#FF9966" points="417.75,443.5 518,317.25 584.5,343.5 491.5,479 		"/>
		<polygon fill="#FF9966" points="408,455.38 415.88,445.62 489.83,481.08 482.17,492.25 467.17,484.92 461,493.08 411.5,468.67 
			417.75,460.67 		"/>
	</g>
	<g id="s160">
		<polygon fill="#FF9966" points="358.25,387.5 386,357.5 396.38,361.88 444.75,308 431.62,302.62 444.25,288.88 515.38,316.5 
			415,442.5 395,433 401.75,424.25 365.5,407.25 358.25,415.5 354,413 371,393.75 		"/>
		<polygon fill="#FF9966" points="341.62,423.25 349.75,414.38 358.88,418.12 366,409.75 398.25,425.12 390.88,433.5 413.25,445 
			405.5,454.12 		"/>
	</g>
	<g id="s150">
		<polygon fill="#FF9966" points="214,363.75 228.25,370.88 223.38,375.88 275.38,401 290.44,385.88 244,364 252.75,355.5 
			233.5,346.25 		"/>
		<polygon fill="#FF9966" points="342.67,249 406.83,274.42 394.25,286.75 385.08,283.33 353.92,314.33 349.33,312.17 
			328.92,332.42 339,337.17 292.5,383.17 248.67,363.17 257.17,354.83 235.5,344.67 		"/>
	</g>
	<g id="s140">
		<polygon fill="#FF9966" points="291,229.33 340.5,248.33 224.67,352 172,327 		"/>
		<polygon fill="#FF9966" points="153.33,342.17 199.33,364.67 205.5,359.17 212.17,363 222,353.67 169.67,328.33 		"/>
	</g>
	<g id="s130">
		<polygon fill="#FF9966" points="242.67,210.33 289.5,228.33 233.83,274.17 170.17,326.17 156,319.67 165.17,312 129.83,295.33 		
			"/>
		<polygon fill="#FF9966" points="108,312 127.67,297 161.58,312.58 152.5,320 168.17,327.67 157.92,336.08 		"/>
	</g>
	<g id="s110">
		<polygon fill="#FF9966" points="34.33,261.33 70,224.33 148.42,173.42 241.5,209.67 128,294.67 102.83,282.83 93.5,289.5 		"/>
		<polygon fill="#FF9966" points="145.25,160.33 158.17,165.33 104.75,199.58 91.5,194.17 		"/>
		<polygon fill="#FF9966" points="57,216.67 69.33,222.17 31,261.83 93.38,291.88 102.5,284.88 126.12,296.25 106.12,311.38 
			8.33,265.67 		"/>
	</g>
</g>
<g id="nopointer_1_">
	<g>
		<g>
			<g>
				<polygon fill="#2B3E68" points="83.45,525.26 101.59,493.43 119.74,525.26 130.92,525.26 101.59,473.8 72.26,525.26 				"/>
			</g>
		</g>
		<path fill="#2B3E68" d="M143.54,528.48c-2.23,4.5-5.17,8.67-8.79,12.34c-8.86,8.97-20.63,13.91-33.16,13.91
			s-24.3-4.94-33.16-13.91c-8.86-8.97-13.73-20.9-13.73-33.58c0-12.69,4.88-24.61,13.73-33.58c8.86-8.97,20.63-13.91,33.16-13.91
			c12.53,0,24.3,4.94,33.16,13.91c8.86,8.97,13.73,20.9,13.73,33.58c0,1.27-0.06,2.52-0.16,3.77h8.07c0.08-1.25,0.14-2.51,0.14-3.77
			c0-14.87-5.71-28.84-16.09-39.35c-10.38-10.51-24.17-16.3-38.85-16.3s-28.47,5.79-38.85,16.3
			c-10.38,10.51-16.09,24.49-16.09,39.35c0,14.86,5.71,28.84,16.09,39.35c10.38,10.51,24.17,16.3,38.85,16.3
			c14.68,0,28.47-5.79,38.85-16.3c5.2-5.27,9.23-11.41,11.96-18.1H143.54z"/>
		<g>
			<path fill="#2B3E68" d="M143.7,518.79h10.47v6.42h-16.85v-32.32h6.38V518.79z"/>
			<path fill="#2B3E68" d="M181.68,492.89v6.46h-8.4v25.9h-6.38v-25.9h-8.45v-6.46H181.68z"/>
		</g>
		<g>
			<path fill="#2B3E68" d="M166.65,534.87c0-1.74,0.63-3.24,1.89-4.5c1.26-1.25,2.77-1.88,4.53-1.88c1.74,0,3.24,0.63,4.49,1.89
				c1.25,1.26,1.88,2.78,1.88,4.55c0,1.78-0.63,3.29-1.89,4.54c-1.26,1.25-2.79,1.87-4.57,1.87c-1.58,0-3-0.55-4.26-1.66
				C167.35,538.46,166.65,536.86,166.65,534.87z M168.52,534.9c0,1.37,0.45,2.5,1.36,3.38c0.9,0.88,1.95,1.32,3.13,1.32
				c1.28,0,2.37-0.45,3.25-1.35c0.88-0.91,1.32-2.02,1.32-3.32c0-1.32-0.44-2.43-1.31-3.32c-0.87-0.9-1.94-1.35-3.22-1.35
				c-1.27,0-2.35,0.45-3.23,1.35C168.95,532.49,168.52,533.59,168.52,534.9z"/>
			<path fill="#2B3E68" d="M191.13,530.49h-4.26v2.98h4.11v1.76h-4.11v5.9h-1.85v-12.4h6.11V530.49z"/>
			<path fill="#2B3E68" d="M198.36,528.73v12.4h-1.85v-12.4H198.36z"/>
			<path fill="#2B3E68" d="M213.59,529.4v2.22c-1.07-0.9-2.17-1.36-3.31-1.36c-1.26,0-2.32,0.46-3.18,1.37
				c-0.87,0.91-1.3,2.02-1.3,3.34c0,1.3,0.43,2.4,1.3,3.29c0.87,0.89,1.93,1.34,3.19,1.34c0.65,0,1.2-0.11,1.66-0.32
				c0.25-0.11,0.52-0.25,0.79-0.43c0.27-0.18,0.56-0.4,0.86-0.66v2.26c-1.06,0.6-2.17,0.91-3.33,0.91c-1.75,0-3.24-0.62-4.48-1.85
				c-1.23-1.25-1.85-2.75-1.85-4.51c0-1.58,0.52-2.99,1.55-4.22c1.27-1.51,2.91-2.27,4.92-2.27
				C211.51,528.49,212.57,528.79,213.59,529.4z"/>
			<path fill="#2B3E68" d="M221.02,528.73v12.4h-1.85v-12.4H221.02z"/>
			<path fill="#2B3E68" d="M227.21,541.13v-13.24l8.93,9.46v-8.61h1.85v13.15l-8.93-9.43v8.68H227.21z"/>
			<path fill="#2B3E68" d="M251.44,538.12h-5.24l-1.36,3.01h-1.99l6.06-13.18l5.84,13.18h-2.02L251.44,538.12z M250.69,536.36
				l-1.82-4.21l-1.9,4.21H250.69z"/>
		</g>
		<polygon fill="#2B3E68" points="186.77,525.2 198.16,505.21 209.56,525.2 216.58,525.2 198.16,492.89 179.74,525.2 		"/>
		<g>
			<path fill="#2B3E68" d="M103.42,518.79l-1.87,6.55l-1.87-6.55c-0.19-0.68-0.79-1.16-1.49-1.2l-35.79-2.16l35.79-2.16
				c0.7-0.04,1.29-0.52,1.49-1.2l1.87-6.55l1.87,6.55c0.19,0.68,0.79,1.16,1.49,1.2L219,515.43l-114.08,2.16
				C104.22,517.63,103.62,518.11,103.42,518.79z"/>
		</g>
	</g>
</g>
</svg>
