<?xml version="1.0" encoding="utf-8"?>
<!-- Generator: Adobe Illustrator 23.0.4, SVG Export Plug-In . SVG Version: 6.00 Build 0)  -->
<svg version="1.1" xmlns="http://www.w3.org/2000/svg" xmlns:xlink="http://www.w3.org/1999/xlink" x="0px" y="0px" width="1000px"
	 height="600px" viewBox="0 0 1000 600" enable-background="new 0 0 1000 600" xml:space="preserve">
<g id="base">
	<g id="base2">
		<rect fill="#F7F7F7" width="1000" height="600"/>
	</g>
	
		<image display="none" overflow="visible" width="2880" height="1520" xlink:href="53CC460581041A54.jpg"  transform="matrix(0.3476 0 0 0.3476 -6 41)">
	</image>
	<g id="Layer_16">
		<polygon fill="#CCCCCC" points="337.25,36.62 191.5,127.5 664.75,294.5 755.5,151.25 		"/>
	</g>
	<g id="Layer_17">
		<polygon fill="#BCBCBC" points="755.5,151 753.25,159 663.25,302 664.5,294.5 		"/>
	</g>
	<g id="Layer_18">
		<polygon fill="#999999" points="191,127.25 193,134.5 663.25,301.92 664.67,294.5 		"/>
	</g>
	<g>
		<polygon fill="#DEDEDE" points="199.5,185 181.5,195.5 318.5,356.5 409,388 585,379 582,333 		"/>
		<polygon fill="#DEDEDE" points="798,225.5 812,229.5 871,250.5 923,335.5 860,436 736.5,347 		"/>
	</g>
	<g id="Layer_21">
		<polygon fill="#70C4B4" points="798.33,225.33 798.75,219.25 811.5,196.5 957.17,238.58 926.17,353.33 924.67,354.5 925.67,355 
			920,377.33 918.17,378.5 919.17,379 914.58,396.58 913,398.17 914.08,398.58 887.5,497 883.5,504 740.5,445.5 732.5,356 
			735.83,346.83 753,352.83 768.83,320 890.17,362 899.83,331.33 782.67,292.33 783.33,286.33 807.58,239 808.33,239.25 
			807.92,238.17 812,229.17 		"/>
		<path fill="#BCBCBC" d="M199.25,185.25l-1.92-5.58l-54-20.67l-77,48.67l-38.67,38.67L31,254l132.33,62.33l185,87.33l229.33,108
			l46.67-80.33L641,353l-0.5-4.5l-54.83-20.17l-8,11.33L509.37,313l-74.24-28.87l-6.25,6.62l0.5,6l5,1.88l-25,27.38l-5.5-2.25
			L368.62,362l-45.75-20.12l33.38-32.62l-0.88-5.38l26.62-26l7.88,3l6.62-6.25l-0.75-5.88l-119.38-46.38c0,0-84-32.38-83.62-32.62
			S199.25,185.25,199.25,185.25z"/>
	</g>
	<g id="Layer_24">
		<polygon fill="#649B85" points="732.7,355.94 735.31,346.94 743.72,438.08 741.11,445.62 		"/>
		<polygon fill="#649B85" points="924.67,354.67 896.5,345.17 891.17,362.67 890,362 899.67,331.5 782.83,292.5 783.67,286.17 
			903,325.67 897.5,343.17 926,353.17 		"/>
		<polygon fill="#649B85" points="808.17,237.5 808.17,239.17 944.69,281.19 945.75,279.81 		"/>
		<polygon fill="#649B85" points="798.62,225.12 799,219.12 814.88,224 812,229.38 		"/>
		<polygon fill="#649B85" points="919.67,376.83 918.5,378.67 905.58,374.08 901.92,381.17 898.67,393 896.92,392.5 903.5,371.25 		
			"/>
		<polygon fill="#649B85" points="943.75,286.08 944.75,284.5 929.58,279.83 924.83,296.83 926.08,297.08 928.92,288.08 932,282.25 
					"/>
	</g>
	<g id="Layer_25" opacity="0.8">
		<polygon fill="#649B85" points="905.5,443.17 895.81,479.58 891.46,487.13 901.04,450.56 		"/>
		<polygon fill="#649B85" points="956.08,251.5 950.58,274 946.58,281.42 952.33,258.92 		"/>
		<g>
			<polygon opacity="0.8" fill="#3C4454" points="389.67,281 389.33,275.17 381.5,272 382,277.67 			"/>
			<polygon opacity="0.8" fill="#3C4454" points="434.5,298.67 438.5,294.5 429,291 429.17,296.67 			"/>
			<polygon opacity="0.8" fill="#3C4454" points="491.7,463.21 497.05,455.28 497.17,455.33 501.33,449.17 469,434.5 458.5,448.17 
				415.67,428.17 412.83,427 394.74,418.45 394.67,418.17 403.5,407.83 403.39,407.72 404.83,406.17 375.17,392.67 364.67,404.17 
				312.13,379.52 246.49,349.23 246.33,348.67 254.96,341 257.83,338.5 231.83,326.5 220.17,336.5 165.58,310.64 151.27,304.2 
				151.17,304 164.83,293.67 162.85,292.97 133.83,279.5 129.33,283.17 120.97,279.34 112.22,285.72 27.83,246.33 30.83,253.83 
				115.67,293.83 127.5,286 133.83,283 159.83,294.99 149.17,303.17 151.9,310.95 153.1,310.12 153.67,311.67 222.5,344 
				234.17,334.83 251.25,340.86 243.83,347.67 246,355.33 247.37,354.34 247.83,356.17 313.16,387.26 366.08,412.17 374.42,402.67 
				398,410.45 391.83,417.33 392.67,424.5 394.95,423.3 395.17,425.67 458.83,456 470.17,441.83 494.17,453.83 488.17,462.17 
				488.5,470 490.97,467.42 490.75,471 578,512 578.75,504.25 			"/>
		</g>
	</g>
	<g id="Layer_22">
		<polygon fill="#97EFCD" points="970,289 973.83,281.5 979.33,258.33 955.83,251.67 952.17,258.83 946.5,281.33 		"/>
		<polygon fill="#97EFCD" points="944,286.19 932,282.31 928.5,289.56 926.31,296.94 939.56,301.06 940.5,300.06 		"/>
		<polygon fill="#97EFCD" points="919.12,379 905.75,374.12 901.88,381.5 898.88,392.88 912.88,398.12 914.5,396.5 		"/>
		<path fill="#97EFCD" d="M900.88,451c0,0,3.75-7.62,4.12-7.5s28.88,10.75,28.88,10.75l-8.38,37l-4.62,7.38l-29.38-12L900.88,451z"
			/>
		<polygon fill="#999999" points="569,510 569.67,503.33 521.33,480.5 510.83,497.17 510.83,504.67 558.5,527.67 		"/>
		<polygon fill="#999999" points="461.33,456.67 461.17,449.67 470.17,437.5 496.83,450 497.5,454.33 491.17,463.83 491.17,467 
			488.67,469.67 		"/>
		<polygon fill="#999999" points="368,412.83 366.83,405.5 376,395.5 401.17,407 401.5,409.83 394.5,418.33 395,422.83 
			392.67,424.83 		"/>
		<polygon fill="#999999" points="253.67,354.83 240,367.33 242.83,375 296.5,401 309.5,387.5 307.83,380 		"/>
		<polygon fill="#999999" points="224,344.83 221.83,337.67 231.67,328.83 253.83,339.17 254.33,341 245.83,349 247.5,354 
			245.67,355.5 		"/>
		<polygon fill="#999999" points="221,345.83 218.5,338.17 169.67,315.33 155.83,326.67 159,334.5 207.67,357.83 		"/>
		<polygon fill="#999999" points="117.33,294.83 113.67,286.67 121.17,281.5 128.67,285.17 133.83,281.83 160.5,294.5 
			161.33,295.67 150.83,304 153.17,309.83 151.83,311 		"/>
		<polygon fill="#999999" points="23.5,272 20,264.33 37.67,253 64.83,265.67 68.67,273.33 50.83,285.33 		"/>
	</g>
	<g id="Layer_26">
		<polygon fill="#BCBCBC" points="20,264.25 23.83,272 51.17,285.17 47.33,277.25 		"/>
		<polygon fill="#BCBCBC" points="113.62,286.75 117,294.75 151.88,311.25 149.38,303.38 		"/>
		<polygon fill="#BCBCBC" points="155.88,326.5 159,334.62 207.25,357.88 204.75,349.75 		"/>
		<polygon fill="#BCBCBC" points="221.62,337.5 243.88,347.75 246.12,355.62 223.75,344.75 		"/>
		<polygon fill="#BCBCBC" points="240.25,367.25 242.88,375.12 296.38,401.12 294.62,393 		"/>
		<polygon fill="#BCBCBC" points="366.62,405.25 392.5,417.12 393.12,425 368,413 		"/>
		<polygon fill="#BCBCBC" points="461.12,449.5 461.25,456.88 488.5,469.75 488.38,462 		"/>
		<polygon fill="#BCBCBC" points="510.75,496.88 510.62,504.88 559,528.12 559,520.12 		"/>
	</g>
	<g id="Layer_27">
		<polygon fill="#CCCCCC" points="47.5,277.25 64.5,266 68,273.25 51,285.25 		"/>
		<polygon fill="#CCCCCC" points="204.75,349.75 218.5,338.25 221,345.75 207.25,358 		"/>
		<polygon fill="#CCCCCC" points="294.5,393.25 307.5,380 309.5,387.5 296.5,401.25 		"/>
		<polygon fill="#CCCCCC" points="559,520.25 569.5,503.25 569.25,510 559,527.75 		"/>
		<polygon fill="#CCCCCC" points="578.25,504 577.75,512.5 624.25,432.75 641,353 640.5,348.5 624.5,424.75 		"/>
		<polygon fill="#ABEFD2" points="743.75,438 740.75,445.75 883.25,503.75 887.25,496 		"/>
		<polygon fill="#ABEFD2" points="895.75,479.75 891.5,486.75 921,498.5 925.25,491.5 		"/>
		<polygon fill="#ABEFD2" points="901.25,391.25 914.75,396.25 913,398 899.75,393.5 		"/>
		<polygon fill="#ABEFD2" points="928.25,295.5 940.5,299.5 939.75,301.25 927,297.25 		"/>
		<polygon fill="#ABEFD2" points="950.5,274.5 974.25,281.25 970.5,288.75 946,281.25 		"/>
		<polygon fill="#649B85" points="798.25,225.5 798.25,219.75 814.75,224.25 812,229.5 		"/>
		<polygon fill="#CCCCCC" points="197.72,179.8 199.54,185.26 193.18,190.07 186.55,187.21 		"/>
		<polygon fill="#CCCCCC" points="395.79,268.96 396.44,274.81 389.94,281.31 389.55,274.94 		"/>
		<path fill="#CCCCCC" d="M355.76,303.66l26.25-25.47l-0.52-6.24l-30.93,29.63l4.73,1.89l-37.48,36.06l4.94,2.47
			c0.39-0.26,33.66-32.62,33.66-32.62l-0.86-5.8L355.76,303.66z"/>
	</g>
	<g id="s340_copy" display="none">
		<g display="inline">
			<polygon fill="#90DDBE" points="20.25,264 47.5,277.25 64.75,265.75 37.75,252.75 			"/>
			<polygon fill="#90DDBE" points="133.88,281.88 128.5,285.25 121.12,281.5 113.75,286.62 149.25,303.12 160.38,294.38 			"/>
			<polygon fill="#90DDBE" points="156,326.75 205,349.75 218.75,338.25 169.75,315.25 			"/>
			<polygon fill="#90DDBE" points="253.25,338.75 231.25,328.5 221.5,337.5 243.5,347.75 			"/>
			<path fill="#90DDBE" d="M240,367l54.75,26.25l13.5-13c0,0-54-25.25-54.75-25.5S240,367,240,367z"/>
			<polygon fill="#90DDBE" points="376,395.25 366.75,405.25 392.5,417 401.25,407 			"/>
			<path fill="#90DDBE" d="M585.75,328.25l-7.75,11.5l-142.25-55.5l-6.75,6.5l9.75,3.5L409,325.75l-4.5-2l-36,38.25
				c0,0-27.85-12.37-28.6-12.62h0l-21.65-9.88l37-36l-4.5-2l30.5-29.75l8.25,3.5l6-6.5L187,187.25l11.25-7.5L143.5,159l-76.75,48
				L27.5,246.5l84.75,39.25l8.74-6.38l8.26,3.63l5-3.25l29.75,14L151,304l69,32.5l11.91-10.37l25.84,12.37l-11.5,10.25l118.5,55.5
				l10.5-11.75L405,406.25l-10.5,12L458.75,448L469,434.25L501.5,449l-10,14.25l87,40.75l46.75-79.5l15.25-75.75L585.75,328.25z"/>
			<polygon fill="#90DDBE" points="470,437.25 461.25,449.75 488.75,462 497,449.75 			"/>
			<path fill="#90DDBE" d="M510.75,496.75l48.25,23.5l10.5-17c0,0-47.5-22.5-48.25-23S510.75,496.75,510.75,496.75z"/>
		</g>
	</g>
	<g id="shadows" opacity="0.55">
		<path fill="#3C4454" d="M82,197.67c0.5-0.83,10.83-11.33,10.83-11.33L162.5,143l50.33,18.67l-2.33,9.83l229.17,85.83l120.33,45
			l8-9.67l48.33,17.67l7,19.33l-2.87,11.47l-34.8-12.8L578,339.67l-142.83-55.5L429,291l-1-9l6-6.33l-38.33-15l0.08,8.08
			l-202.58-78.68l6.16-4.4l-1.67-6l-54.33-20.33L82,197.67z"/>
		<path fill="#3C4454" d="M68,273.33l0.5-2L65.33,265l-26.67-12.83l-6,2.33l1.5,0.67c0,0,3.17-2.08,3.5-1.92
			c0.33,0.17,26.92,12.83,26.92,12.83L68,273.33z"/>
		<polygon fill="#3C4454" points="220.58,345.25 220.67,342.75 218.67,336.83 170.75,314.42 162.75,315.75 166.92,317.92 
			170.25,315.5 218.17,338.08 		"/>
		<path fill="#3C4454" d="M307.92,380.33l-0.42-2.08c0,0-52.67-24.83-53.33-24.75c-0.67,0.08-9.42,1.5-9.42,1.5l6,2.5l3.33-2.75
			L307.75,380"/>
		<polygon fill="#3C4454" points="506.33,478.33 521.33,478.67 568.5,500.92 568.58,502.5 521.75,480.75 519.17,484.5 		"/>
		<path fill="#3C4454" d="M743.67,438l-2.67,7.33l-2.33-26.67l-23-9.33l-9-23l-4.33-76l1.17-1.5l12.17,4.5
			C716.75,312.5,763,227.5,763,227.5l10.5-19.5l-6.25-11l11.5-20l131,37.25l10.75,13.5l-109.25-31l-12.75,23l-0.25,5.75l-61,121.5
			l-1.5-0.25l-0.75,2L743.67,438z"/>
		<polygon fill="#3C4454" points="814.5,223.75 800.5,226.25 798.5,230.75 800,233 797.62,232.38 775,278.25 783,292.62 
			783.5,286.38 807.5,238.88 808.38,239.5 807.96,238.04 		"/>
		<polygon fill="#3C4454" points="902.25,325.5 885.25,326.75 883.5,332.25 885.5,335.5 882.75,335 877.25,351.75 758.75,310.5 
			743,342.5 740.25,341.25 737.25,347 752.75,353 768.75,320 891.25,362.5 		"/>
		<path fill="#3C4454" d="M905,443.75l-9.25,36l-4,6.75c0,0,0.5-10.5,1-11.25S899.5,450,899.5,450L905,443.75z"/>
		<polygon fill="#3C4454" points="956,251.5 950.5,273.75 946.75,281.5 947.5,273.5 951.5,258.25 		"/>
		<polygon fill="#3C4454" points="205.08,118.46 206.46,114.03 340.58,31.07 728.01,136.43 733.27,145.01 337.54,36.88 		"/>
		<polygon fill="#3C4454" points="932.19,282 928.38,296.06 927.69,297.38 926,297.06 928.81,288.75 		"/>
		<path fill="#3C4454" d="M901.17,391.67l-1.17,1.67l-1.17-0.33c0,0,3.17-11.5,3.5-12c0.33-0.5,3.67-7,3.67-7L901.17,391.67z"/>
	</g>
	<g id="Layer_28">
		<polygon fill="#DEDEDE" points="199.67,185.33 198.67,186 581.83,334 582.5,332.83 		"/>
	</g>
</g>
<g id="landmarks">
	<g id="s340_1_">
		<g>
			<polygon fill="#D1D1D1" points="20.25,264 47.5,277.25 64.75,265.75 37.75,252.75 			"/>
			<polygon fill="#D1D1D1" points="133.88,281.88 128.5,285.25 121.12,281.5 113.75,286.62 149.25,303.12 160.38,294.38 			"/>
			<polygon fill="#D1D1D1" points="156,326.75 205,349.75 218.75,338.25 169.75,315.25 			"/>
			<polygon fill="#D1D1D1" points="253.25,338.75 231.25,328.5 221.5,337.5 243.5,347.75 			"/>
			<path fill="#D1D1D1" d="M240,367l54.75,26.25l13.5-13c0,0-54-25.25-54.75-25.5S240,367,240,367z"/>
			<polygon fill="#D1D1D1" points="376,395.25 366.75,405.25 392.5,417 401.25,407 			"/>
			<path fill="#D1D1D1" d="M585.75,328.25l-7.75,11.5l-142.25-55.5l-6.75,6.5l9.75,3.5L409,325.75l-4.5-2l-36,38.25
				c0,0-27.85-12.37-28.6-12.62h0l-21.65-9.88l37-36l-4.5-2l30.5-29.75l8.25,3.5l6-6.5L187,187.25l11.25-7.5L143.5,159l-76.75,48
				L27.5,246.5l84.75,39.25l8.74-6.38l8.26,3.63l5-3.25l29.75,14L151,304l69,32.5l11.91-10.37l25.84,12.37l-11.5,10.25l118.5,55.5
				l10.5-11.75L405,406.25l-10.5,12L458.75,448L469,434.25L501.5,449l-10,14.25l87,40.75l46.75-79.5l15.25-75.75L585.75,328.25z"/>
			<polygon fill="#D1D1D1" points="470,437.25 461.25,449.75 488.75,462 497,449.75 			"/>
			<path fill="#D1D1D1" d="M510.75,496.75l48.25,23.5l10.5-17c0,0-47.5-22.5-48.25-23S510.75,496.75,510.75,496.75z"/>
		</g>
	</g>
	<g id="e305">
		<path fill="#90DDBE" d="M735.25,346.5l17.75,6.25l16-33l122.25,42.75l5.25-17.5l29,10.5c0,0-5,21.75-5.75,21.5s-17-5.75-17-5.75
			L897,392.5l17,6.25l-26.5,97.5l-143.75-58L735.25,346.5z"/>
		<polygon fill="#90DDBE" points="905.75,374.25 919,379 914.5,397 901,391.75 		"/>
		<polygon fill="#90DDBE" points="905.25,443.25 933.75,454.25 925.25,492 895.5,480.25 		"/>
	</g>
	<g id="e315">
		<polygon fill="#90DDBE" points="783.5,286.25 807,239.25 945.5,281.75 944.75,285.25 929.5,280.25 925,297 939.5,301.75 
			925.75,353.25 897.25,343.25 902.75,325.5 		"/>
		<polygon fill="#90DDBE" points="932.08,282.17 928.25,296 940.5,300 944.08,286.17 		"/>
	</g>
	<g id="e325">
		<polygon fill="#90DDBE" points="799,219 811.5,196.25 956.75,238.5 945.5,279.5 808.5,237.5 815.25,223.5 		"/>
		<polygon fill="#90DDBE" points="955.75,251.5 979.25,258.25 974,281.5 950.25,274.5 		"/>
	</g>
	<g id="garage-3">
		<polygon fill="#DEDEDE" points="190.5,127 337,36.5 755,151 664,295 		"/>
	</g>
</g>
<g id="nopointer">
	<g id="logo">
		<g>
			<g>
				<g>
					<polygon fill="#2B3E68" points="83.45,525.26 101.59,493.43 119.74,525.26 130.92,525.26 101.59,473.8 72.26,525.26 					"/>
				</g>
			</g>
			<path fill="#2B3E68" d="M143.54,528.48c-2.23,4.5-5.17,8.67-8.79,12.34c-8.86,8.97-20.63,13.91-33.16,13.91
				s-24.3-4.94-33.16-13.91c-8.86-8.97-13.73-20.9-13.73-33.58c0-12.69,4.88-24.61,13.73-33.58c8.86-8.97,20.63-13.91,33.16-13.91
				c12.53,0,24.3,4.94,33.16,13.91c8.86,8.97,13.73,20.9,13.73,33.58c0,1.27-0.06,2.52-0.16,3.77h8.07
				c0.08-1.25,0.14-2.51,0.14-3.77c0-14.87-5.71-28.84-16.09-39.35c-10.38-10.51-24.17-16.3-38.85-16.3s-28.47,5.79-38.85,16.3
				c-10.38,10.51-16.09,24.49-16.09,39.35c0,14.86,5.71,28.84,16.09,39.35c10.38,10.51,24.17,16.3,38.85,16.3
				c14.68,0,28.47-5.79,38.85-16.3c5.2-5.27,9.23-11.41,11.96-18.1H143.54z"/>
			<g>
				<path fill="#2B3E68" d="M143.7,518.79h10.47v6.42h-16.85v-32.32h6.38V518.79z"/>
				<path fill="#2B3E68" d="M181.68,492.89v6.46h-8.4v25.9h-6.38v-25.9h-8.45v-6.46H181.68z"/>
			</g>
			<g>
				<path fill="#2B3E68" d="M166.65,534.87c0-1.74,0.63-3.24,1.89-4.5c1.26-1.25,2.77-1.88,4.53-1.88c1.74,0,3.24,0.63,4.49,1.89
					c1.25,1.26,1.88,2.78,1.88,4.55c0,1.78-0.63,3.29-1.89,4.54c-1.26,1.25-2.79,1.87-4.57,1.87c-1.58,0-3-0.55-4.26-1.66
					C167.35,538.46,166.65,536.86,166.65,534.87z M168.52,534.9c0,1.37,0.45,2.5,1.36,3.38c0.9,0.88,1.95,1.32,3.13,1.32
					c1.28,0,2.37-0.45,3.25-1.35c0.88-0.91,1.32-2.02,1.32-3.32c0-1.32-0.44-2.43-1.31-3.32c-0.87-0.9-1.94-1.35-3.22-1.35
					c-1.27,0-2.35,0.45-3.23,1.35C168.95,532.49,168.52,533.59,168.52,534.9z"/>
				<path fill="#2B3E68" d="M191.13,530.49h-4.26v2.98h4.11v1.76h-4.11v5.9h-1.85v-12.4h6.11V530.49z"/>
				<path fill="#2B3E68" d="M198.36,528.73v12.4h-1.85v-12.4H198.36z"/>
				<path fill="#2B3E68" d="M213.59,529.4v2.22c-1.07-0.9-2.17-1.36-3.31-1.36c-1.26,0-2.32,0.46-3.18,1.37
					c-0.87,0.91-1.3,2.02-1.3,3.34c0,1.3,0.43,2.4,1.3,3.29c0.87,0.89,1.93,1.34,3.19,1.34c0.65,0,1.2-0.11,1.66-0.32
					c0.25-0.11,0.52-0.25,0.79-0.43c0.27-0.18,0.56-0.4,0.86-0.66v2.26c-1.06,0.6-2.17,0.91-3.33,0.91c-1.75,0-3.24-0.62-4.48-1.85
					c-1.23-1.25-1.85-2.75-1.85-4.51c0-1.58,0.52-2.99,1.55-4.22c1.27-1.51,2.91-2.27,4.92-2.27
					C211.51,528.49,212.57,528.79,213.59,529.4z"/>
				<path fill="#2B3E68" d="M221.02,528.73v12.4h-1.85v-12.4H221.02z"/>
				<path fill="#2B3E68" d="M227.21,541.13v-13.24l8.93,9.46v-8.61h1.85v13.15l-8.93-9.43v8.68H227.21z"/>
				<path fill="#2B3E68" d="M251.44,538.12h-5.24l-1.36,3.01h-1.99l6.06-13.18l5.84,13.18h-2.02L251.44,538.12z M250.69,536.36
					l-1.82-4.21l-1.9,4.21H250.69z"/>
			</g>
			<polygon fill="#2B3E68" points="186.77,525.2 198.16,505.21 209.56,525.2 216.58,525.2 198.16,492.89 179.74,525.2 			"/>
			<g>
				<path fill="#2B3E68" d="M103.42,518.79l-1.87,6.55l-1.87-6.55c-0.19-0.68-0.79-1.16-1.49-1.2l-35.79-2.16l35.79-2.16
					c0.7-0.04,1.29-0.52,1.49-1.2l1.87-6.55l1.87,6.55c0.19,0.68,0.79,1.16,1.49,1.2L219,515.43l-114.08,2.16
					C104.22,517.63,103.62,518.11,103.42,518.79z"/>
			</g>
		</g>
	</g>
</g>
</svg>
