<?xml version="1.0" encoding="utf-8"?>
<!-- Generator: Adobe Illustrator 22.1.0, SVG Export Plug-In . SVG Version: 6.00 Build 0)  -->
<svg version="1.1" xmlns="http://www.w3.org/2000/svg" xmlns:xlink="http://www.w3.org/1999/xlink" x="0px" y="0px" width="1000px"
	 height="600px" viewBox="0 0 1000 600" enable-background="new 0 0 1000 600" xml:space="preserve">
<g id="base_1_">
	<g id="base_color">
		<rect fill="#F7F7F7" width="1000" height="600"/>
	</g>
	<g id="Layer_1" display="none">
		
			<image display="inline" overflow="visible" width="2880" height="1520" xlink:href="../../../../../../Users/hannabethlagerlof/Documents/Bangmac Creative/EVA Air/Alta Website/Interactive Map/Exported Images/4.png"  transform="matrix(0.3469 0 0 0.3469 -5 41)">
		</image>
	</g>
	<g id="Layer_11">
		<polygon fill="#CCCCCC" points="190.5,120.5 337,30 756,144 666,286 		"/>
	</g>
	<g id="Layer_12">
		<polygon fill="#999999" points="190,120 192,127 665,294 666,286 		"/>
	</g>
	<g id="Layer_13">
		<polygon fill="#BCBCBC" points="666,286 665,293 755,151 756,144 		"/>
	</g>
	<g id="Layer_14">
		<polygon fill="#DEDEDE" points="416.75,255.75 454.12,218.88 478,226 478,228 442.38,265.62 		"/>
		<path fill="#DEDEDE" d="M715.81,212.25v-1.96l8.35-13.26l74.42,22.84c0,0,0.49-2.7,1.23-2.46c0.74,0.25,14.24,4.18,14.24,4.18
			l-28.98,63.12l116.66,38.8l-9.33,30.45l-121.82-41.75l-15.47,33.16l-16.95-5.89l52.31-103.89L715.81,212.25z"/>
	</g>
	<g id="Layer_15">
		<polygon fill="#999999" points="477.82,226 478.07,228.21 442.21,265.79 440.49,265.3 		"/>
		<polygon fill="#999999" points="715.56,210.53 716.05,212.49 790.33,235.75 790.5,234.25 		"/>
	</g>
	<g id="Layer_16" display="none">
		
			<image display="inline" overflow="visible" width="656" height="740" xlink:href="../../../../../../Users/hannabethlagerlof/Desktop/Screen Shot 2018-08-21 at 1.37.35 PM.png"  transform="matrix(0.5 0 0 0.5 381.3154 150.821)">
		</image>
	</g>
	<g id="Layer_17">
		<polygon fill="#75D3D3" points="799.4,217.26 799.79,210.79 812.97,188.88 961.25,230.69 949.88,272.62 948.56,274.06 
			949.08,274.33 948.5,276.67 947.5,277.92 943.75,294.33 930.25,345.83 928.83,347.33 929.75,347.67 923.83,369.17 922.67,370.58 
			923.58,370.92 919,388.67 917.75,390.42 918.5,390.92 892.92,487.6 887.83,495.33 741.4,436.09 733.99,347.25 736,341 
			737.5,338.75 755.25,345.5 770.75,312.25 892.5,354 902,323.25 784.75,284.25 786.25,278.25 809,231.83 809.88,232.12 
			809.88,229.96 814.25,221 		"/>
	</g>
	<g id="Layer_18">
		<polygon fill="#0C9DA8" points="142.75,151.5 642.75,340.75 642.5,344.75 625.5,423.5 577.75,503.75 28.25,246 25,238.5 64,200 		
			"/>
	</g>
	<g id="Layer_21">
		<path fill="#32BCC6" d="M132.75,271.8l-5.02,3.84l-8.11-3.69l-9.38,6.09l-85.19-39.58c0.3,0.74,3.84,7.82,3.84,7.82l84.54,39.54
			l9.74-5.46l36.01,7.48l3.38-2.76L132.75,271.8z"/>
		<polygon fill="#32BCC6" points="469.16,427.56 459.56,440.11 148.9,295.82 151.1,303.51 398.58,419.72 458.82,447.41 
			458.97,448.42 459.71,447.81 460.69,448.27 460.58,447.1 463.36,444.82 471.67,437.29 495.82,447.8 499.9,441.84 		"/>
		<polygon fill="#32BCC6" points="490.49,454.7 490.33,462.7 578.32,503.94 579.1,495.79 		"/>
		<polygon fill="#32BCC6" points="733.83,348.67 736.5,340.67 744.67,427.67 741.5,436.17 		"/>
	</g>
	<g id="Layer_19">
		<polygon fill="#95E0EB" points="810.75,463.75 813.5,458.12 880.25,484.75 874.25,505.88 870.38,513.12 803.12,485.38 		"/>
		<polygon fill="#95E0EB" points="923.62,371 908,365.12 904.38,372.38 901,384.5 917.5,390.5 918.88,388.62 		"/>
		<polygon fill="#95E0EB" points="947.88,278.12 933.88,273.38 930.5,280.38 928.12,289 943,294 944.5,292.75 		"/>
		<polygon fill="#95E0EB" points="952.12,266.75 974.25,273.38 978.25,265.5 982.88,244.5 960.75,238.12 957.25,246.12 		"/>
		<polygon fill="#95E0EB" points="487.83,461.5 490.33,458.5 490.33,454.67 496,447 495.67,442.67 469.83,430.83 461.83,441.67 
			462.33,449.67 		"/>
		<polygon fill="#95E0EB" points="461.17,451.67 461,443.83 399,414.67 392.5,422.5 393.5,430.5 455,459.67 		"/>
		<polygon fill="#95E0EB" points="390.17,417.83 389.17,410.33 331.83,383.5 325.17,391 326.67,398.67 383.33,425.67 		"/>
		<polygon fill="#95E0EB" points="323.17,386.5 321.5,378.5 267.33,353.33 260.33,360.5 262.33,368.17 316.17,393.83 		"/>
		<polygon fill="#95E0EB" points="149.58,303.08 150.83,302.33 148.83,296 159.33,287.75 159,285.5 133,274 127.83,277.67 
			119.67,273.83 112,278.83 115.17,286.83 		"/>
	</g>
	<g id="Layer_20">
		<polygon fill="#6BDADD" points="488,461.25 487.75,453.75 462.25,441.75 462.5,449.75 		"/>
		<polygon fill="#6BDADD" points="392.75,422.75 454.5,451.5 454.75,459.75 393.25,430 		"/>
		<polygon fill="#6BDADD" points="325.25,390.75 382.5,417.75 383.5,425.75 326.25,398.25 		"/>
		<polygon fill="#6BDADD" points="260.5,360.25 314.75,385.75 316,393.75 262.5,368.25 		"/>
		<polygon fill="#6BDADD" points="112,278.92 115.08,286.83 149.75,303 146.83,295.08 		"/>
		<polygon fill="#32BCC6" points="159.25,285.17 146.83,295.08 149.5,303.17 150.83,302.33 149,295.92 162.58,285.25 		"/>
		<polygon fill="#32BCC6" points="810.67,464 814.17,457.83 807.5,477.83 803.5,485.5 		"/>
		<polygon fill="#32BCC6" points="784.78,284.79 785.5,278.19 905.46,317.23 899.76,335.23 929.88,345.57 928.81,347.36 
			898.86,337.2 893.7,354.49 892.27,354.13 901.72,323.29 		"/>
		<path fill="#32BCC6" d="M923.67,368.83l-1,1.83l-14.5-5.5l-3.83,7.33l-3.5,12.33c0,0-2.33-0.33-1.83-0.5c0.5-0.17,6.67-22,6.67-22
			L923.67,368.83z"/>
		<polygon fill="#32BCC6" points="947.42,277.92 948.5,276.5 931.58,271.25 926.67,288.83 928,289.08 930.58,280.25 933.75,273.42 
					"/>
		<polygon fill="#32BCC6" points="799.25,217.25 799.75,210.75 817,216 814.12,221.25 		"/>
		<polygon fill="#32BCC6" points="809.88,232.12 810,230 949.75,272.5 948.5,274.12 		"/>
	</g>
	<g id="Layer_22">
		<path fill="#A4F9FF" d="M579,495.5l-1.25,9l47.5-80.75l17.38-80.88l-0.38-2.25l-16.5,75.12C625.75,415.75,579,495.25,579,495.5z"
			/>
		<polygon fill="#A4F9FF" points="314.83,385.67 321.5,378.33 323.17,386.33 316.17,394 		"/>
		<polygon fill="#A4F9FF" points="382.33,417.83 389.33,410.33 390.33,418.17 383.67,426 		"/>
		<polygon fill="#A4F9FF" points="454.5,451.5 460.83,443.83 461.33,451.83 455,460.17 		"/>
		<polygon fill="#A4F9FF" points="874.64,505.26 870.24,513.2 803.34,485.28 807.46,477.77 		"/>
		<path fill="#A4F9FF" d="M744.38,428.02l-2.69,7.94l68.6,27.78l3.69-5.53l65.34,26.36l-1.28,6.52c0,0,10.63,4.54,10.63,4.11
			c0-0.43,4.25-7.8,4.25-7.8L744.38,428.02z"/>
		<polygon fill="#A4F9FF" points="918.92,388.44 903.39,383.27 902.13,384.99 917.54,390.4 		"/>
		<polygon fill="#A4F9FF" points="930.3,288.17 929.15,289.78 942.95,294.04 944.1,292.54 		"/>
		<polygon fill="#A4F9FF" points="952.15,266.67 956.17,258.62 978.14,265.64 974.23,273.23 		"/>
	</g>
	<g id="shadows" opacity="0.55">
		<polygon fill="#3C4454" points="924.03,220.47 917,211.64 904.55,208.02 898.13,199.59 769.63,164.05 758.58,183.33 
			764.81,193.77 763.6,196.18 732.03,187.15 725.53,197.41 798.54,219.67 799.34,217.46 799.74,210.63 812.79,188.95 		"/>
		<polygon fill="#3C4454" points="748.14,222.28 787.76,234.69 791.21,234.08 738.4,339.13 737.1,338.73 735.9,340.74 
			733.69,347.77 738.1,397.36 705.58,384.31 696.34,362.62 693.73,291.35 694.74,289.94 706.98,294.36 		"/>
		<polygon fill="#3C4454" points="802.96,218.46 817.01,216.46 809.75,230.08 809.92,232.08 809,231.92 786.09,278.1 784.69,284.52 
			776.86,270.47 799.54,225.29 801.83,225.67 800.58,223.5 		"/>
		<polygon fill="#3C4454" points="887.25,318.75 905,317.5 893.5,354.25 770.75,312 754.75,345.5 738.55,339 741.3,333.1 
			744.5,334.75 761,302.75 879.5,343.25 885,326.75 887,327.5 885.5,325 		"/>
		<polygon fill="#3C4454" points="955.97,258.94 961.06,238.43 956.91,245.94 951.82,266.71 		"/>
		<polygon fill="#3C4454" points="876.87,483.59 877.28,482.62 811.66,456.18 791.31,455.62 811.1,463.79 813.73,458.26 		"/>
		<polygon fill="#3C4454" points="459.57,443.28 458.8,441.47 399.88,414.16 398.77,413.65 392.58,413.65 392.84,416.48 
			396.25,418.25 399,415.25 		"/>
		<polygon fill="#3C4454" points="388.5,410.25 388.25,408.38 331.88,382.38 326.38,382.5 327.62,386.25 329.25,386.88 332.38,384 
					"/>
		<polygon fill="#3C4454" points="321.12,378.75 320.88,377 268.12,352.62 262.75,353 263.75,356.25 264.75,356.88 267.88,354.12 		
			"/>
		<polygon fill="#3C4454" points="84.94,187.06 98.62,173.63 167.05,131.53 420,223 431.83,211.5 453.83,219.17 417.5,255.5 
			142.43,151.88 		"/>
		<polygon fill="#3C4454" points="466.5,240 448.5,259 445.72,259.44 419.74,249.74 416.27,255.23 612.18,329.5 617.12,309.93 
			611.45,292 		"/>
		<polygon fill="#3C4454" points="207.73,109.54 209.67,103.74 340.9,23.6 720.66,125.03 727.63,136.25 336.25,30.18 		"/>
	</g>
</g>
<g id="landmarks">
	<g id="s400">
		<polygon fill="#B7E5E4" points="24.79,238.59 63.74,200.07 142.65,151.27 642.21,340.48 625.8,415.53 578.86,495.87 
			490.39,454.63 499.81,441.93 468.99,427.66 459.57,440.22 149.08,296.05 162.58,285.19 132.83,271.67 127.92,275.58 
			119.75,271.83 110.08,277.92 		"/>
		<polygon fill="#B7E5E4" points="111.91,278.91 119.69,273.81 127.77,277.56 133.06,273.91 158.82,285.35 146.99,294.96 		"/>
		<polygon fill="#B7E5E4" points="260.32,360.13 267.34,353.21 321.55,378.4 314.73,385.8 		"/>
		<polygon fill="#B7E5E4" points="325.11,390.7 331.84,383.49 389.32,410.4 382.21,417.81 		"/>
		<path fill="#B7E5E4" d="M392.49,422.42c0,0,6.15-8.07,6.63-7.79s61.9,29.22,61.9,29.22l-6.73,7.59
			C454.3,451.45,392.2,422.13,392.49,422.42z"/>
		<polygon fill="#B7E5E4" points="461.99,441.45 469.97,430.78 495.73,442.7 487.27,453.66 		"/>
	</g>
	<g id="e405">
		<polygon fill="#B7E5E4" points="736.17,340.83 737.17,338.67 754.83,345.17 770.67,311.83 893.5,354.17 898.83,337 929.33,347.5 
			923.5,369.17 905.5,362.5 899.17,384.33 918.33,391 892.67,487.17 744.5,427.83 		"/>
		<polygon fill="#B7E5E4" points="813.66,458.45 879.01,484.53 874.2,505.17 807.61,477.54 		"/>
		<polygon fill="#B7E5E4" points="908.19,365.48 923.56,371.06 919.05,388.45 903.53,383.02 		"/>
	</g>
	<g id="e415">
		<polygon fill="#B7E5E4" points="949.01,273.9 948.24,276.85 931.63,271.26 926.82,288.65 943.58,294.39 930.08,345.61 
			899.65,335.05 905.24,317.36 785.42,278.25 809.01,231.84 		"/>
		<polygon fill="#B7E5E4" points="947.77,278.09 933.96,273.28 930.23,288.18 944.35,292.53 		"/>
	</g>
	<g id="e425">
		<polygon fill="#B7E5E4" points="961.12,238.2 982.69,244.41 978.19,265.52 956,258.53 		"/>
		<polygon fill="#B7E5E4" points="961.12,230.59 949.94,272.35 809.78,229.82 817.08,216 799.69,210.73 813.04,189 		"/>
	</g>
	<g id="garage-4">
		<polygon fill="#DEDEDE" points="189.82,119.32 336.69,30.01 755.84,144.14 666.41,286.49 		"/>
	</g>
</g>
<g id="nopointer">
	<g id="logo">
		<g>
			<g>
				<polygon fill="#2B3E68" points="83.45,525.26 101.59,493.43 119.74,525.26 130.92,525.26 101.59,473.8 72.26,525.26 				"/>
			</g>
		</g>
		<path fill="#2B3E68" d="M143.54,528.48c-2.23,4.5-5.17,8.67-8.79,12.34c-8.86,8.97-20.63,13.91-33.16,13.91
			s-24.3-4.94-33.16-13.91c-8.86-8.97-13.73-20.9-13.73-33.58c0-12.69,4.88-24.61,13.73-33.58c8.86-8.97,20.63-13.91,33.16-13.91
			c12.53,0,24.3,4.94,33.16,13.91c8.86,8.97,13.73,20.9,13.73,33.58c0,1.27-0.06,2.52-0.16,3.77h8.07c0.08-1.25,0.14-2.51,0.14-3.77
			c0-14.87-5.71-28.84-16.09-39.35c-10.38-10.51-24.17-16.3-38.85-16.3s-28.47,5.79-38.85,16.3
			c-10.38,10.51-16.09,24.49-16.09,39.35c0,14.86,5.71,28.84,16.09,39.35c10.38,10.51,24.17,16.3,38.85,16.3
			c14.68,0,28.47-5.79,38.85-16.3c5.2-5.27,9.23-11.41,11.96-18.1H143.54z"/>
		<g>
			<path fill="#2B3E68" d="M143.7,518.79h10.47v6.42h-16.85v-32.32h6.38V518.79z"/>
			<path fill="#2B3E68" d="M181.68,492.89v6.46h-8.4v25.9h-6.38v-25.9h-8.45v-6.46H181.68z"/>
		</g>
		<g>
			<path fill="#2B3E68" d="M166.65,534.87c0-1.74,0.63-3.24,1.89-4.5c1.26-1.25,2.77-1.88,4.53-1.88c1.74,0,3.24,0.63,4.49,1.89
				c1.25,1.26,1.88,2.78,1.88,4.55c0,1.78-0.63,3.29-1.89,4.54c-1.26,1.25-2.79,1.87-4.57,1.87c-1.58,0-3-0.55-4.26-1.66
				C167.35,538.46,166.65,536.86,166.65,534.87z M168.52,534.9c0,1.37,0.45,2.5,1.36,3.38c0.9,0.88,1.95,1.32,3.13,1.32
				c1.28,0,2.37-0.45,3.25-1.35c0.88-0.91,1.32-2.02,1.32-3.32c0-1.32-0.44-2.43-1.31-3.32c-0.87-0.9-1.94-1.35-3.22-1.35
				c-1.27,0-2.35,0.45-3.23,1.35C168.95,532.49,168.52,533.59,168.52,534.9z"/>
			<path fill="#2B3E68" d="M191.13,530.49h-4.26v2.98h4.11v1.76h-4.11v5.9h-1.85v-12.4h6.11V530.49z"/>
			<path fill="#2B3E68" d="M198.36,528.73v12.4h-1.85v-12.4H198.36z"/>
			<path fill="#2B3E68" d="M213.59,529.4v2.22c-1.07-0.9-2.17-1.36-3.31-1.36c-1.26,0-2.32,0.46-3.18,1.37
				c-0.87,0.91-1.3,2.02-1.3,3.34c0,1.3,0.43,2.4,1.3,3.29c0.87,0.89,1.93,1.34,3.19,1.34c0.65,0,1.2-0.11,1.66-0.32
				c0.25-0.11,0.52-0.25,0.79-0.43c0.27-0.18,0.56-0.4,0.86-0.66v2.26c-1.06,0.6-2.17,0.91-3.33,0.91c-1.75,0-3.24-0.62-4.48-1.85
				c-1.23-1.25-1.85-2.75-1.85-4.51c0-1.58,0.52-2.99,1.55-4.22c1.27-1.51,2.91-2.27,4.92-2.27
				C211.51,528.49,212.57,528.79,213.59,529.4z"/>
			<path fill="#2B3E68" d="M221.02,528.73v12.4h-1.85v-12.4H221.02z"/>
			<path fill="#2B3E68" d="M227.21,541.13v-13.24l8.93,9.46v-8.61h1.85v13.15l-8.93-9.43v8.68H227.21z"/>
			<path fill="#2B3E68" d="M251.44,538.12h-5.24l-1.36,3.01h-1.99l6.06-13.18l5.84,13.18h-2.02L251.44,538.12z M250.69,536.36
				l-1.82-4.21l-1.9,4.21H250.69z"/>
		</g>
		<polygon fill="#2B3E68" points="186.77,525.2 198.16,505.21 209.56,525.2 216.58,525.2 198.16,492.89 179.74,525.2 		"/>
		<g>
			<path fill="#2B3E68" d="M103.42,518.79l-1.87,6.55l-1.87-6.55c-0.19-0.68-0.79-1.16-1.49-1.2l-35.79-2.16l35.79-2.16
				c0.7-0.04,1.29-0.52,1.49-1.2l1.87-6.55l1.87,6.55c0.19,0.68,0.79,1.16,1.49,1.2L219,515.43l-114.08,2.16
				C104.22,517.63,103.62,518.11,103.42,518.79z"/>
		</g>
	</g>
</g>
</svg>
