<?xml version="1.0" encoding="utf-8"?>
<!-- Generator: Adobe Illustrator 23.0.4, SVG Export Plug-In . SVG Version: 6.00 Build 0)  -->
<svg version="1.1" xmlns="http://www.w3.org/2000/svg" xmlns:xlink="http://www.w3.org/1999/xlink" x="0px" y="0px" width="1000px"
	 height="600px" viewBox="0 0 1000 600" enable-background="new 0 0 1000 600" xml:space="preserve">
<g id="base">
	<rect fill="#F7F7F7" width="1000" height="600"/>
	<g id="Walkways_and_Lobbies">
		<polygon fill="#DEDEDE" points="456.5,233.5 478.17,241 478,242.92 440,283.25 582.75,338 583.5,338.42 576.83,347.58 563,380.5 
			358,375 305,358 302,332.5 377.5,275.5 192.5,199.5 196.38,197.88 205.25,191.75 337,242.83 416.67,274 		"/>
		<polygon fill="#DEDEDE" points="722,211.67 713.5,225.33 713.5,226.83 787,249.67 733.67,356.33 754.67,366.17 894,396 
			907.33,344.83 863,252.5 794.67,233.5 		"/>
	</g>
	<g id="Garage_-_base">
		<polygon fill="#CCCCCC" points="193,134.33 663,301.67 753,158.33 337,41.67 		"/>
		<polygon fill="#999999" stroke="#A0A0A0" stroke-miterlimit="10" points="193.67,134.79 195,141 487.33,246 661.67,308.67 
			663,301.67 428,217.67 		"/>
		<polygon fill="#BCBCBC" points="663.33,301.33 662,309.5 752.17,165.33 753.17,158.17 		"/>
	</g>
	<g id="Layer_37">
		<polygon fill="#999999" points="477.75,240.75 478,242.62 440,283 438.38,282.62 		"/>
		<polygon fill="#999999" points="713.12,224.5 713.38,226.62 786.75,249.62 787.75,248 		"/>
	</g>
	<g id="Layer_31">
		<polygon fill="#BCBCBC" points="31.25,254 70,214.25 148.5,164.75 203.25,186.5 205,191.25 196,198.25 395,276 395.75,282 
			389.75,288.25 382.25,285 356.25,310.75 357.25,311.25 357.75,317.25 324.75,349.62 341.62,357 341.75,359.62 343.75,357.75 
			368.38,369.12 404.12,330.62 410.25,333.12 434.75,306.25 430.5,305 430.38,298.88 436.5,292.38 505.62,319.75 506,323.38 
			508.25,320.62 576.5,347.5 586.62,333.5 640.12,354.38 622.33,439.83 576.5,518.67 416.12,442.75 415.81,439.75 413.69,441.44 
			396,433.06 395.88,430.06 394.19,431.94 253.79,364.07 249.72,361.85 248.46,362.66 34.5,260.88 		"/>
		<polygon fill="#EBC63D" points="329.62,250.38 395,276 395.75,282 389.75,288.25 382.25,285 356.25,310.75 357.25,311.25 
			357.75,317.25 324.75,349.62 341.62,357 341.75,359.62 343.75,357.75 368.38,369.12 404.12,330.62 410.25,333.12 434.75,306.25 
			430.5,305 430.38,298.88 436.5,292.38 505.5,320.25 506.5,323 507.75,321 576.5,347.5 586.62,333.5 640.12,354.38 622.33,439.83 
			576.5,518.67 416.12,442.75 415.81,439.75 413.69,441.44 396,433.06 395.88,430.06 394.19,431.94 253.79,364.07 249.72,361.85 
			248.46,362.66 222.48,350.3 221.38,345.94 		"/>
		<polygon fill="#BCBCBC" points="794.81,233.61 795.33,228.17 808.45,203.78 952.48,245.75 916.75,378.25 882.75,502.75 
			879,509.75 738.5,451.75 730.75,362.75 733.25,355 751.25,361.5 767.5,327.5 886.5,369.5 895.75,338.25 781.5,300 782.75,293.75 
			805.94,246.25 806.88,246.69 806.62,245.12 809.81,238.62 		"/>
	</g>
	<g id="Layer_32">
		<polygon fill="#999999" points="951.67,258.83 976.33,266 971,289.17 967,296.5 942.17,288.83 948.5,265.33 		"/>
		<polygon fill="#999999" points="939.83,293 928.83,289.17 925.17,296.33 923,304.83 936,308.83 		"/>
		<polygon fill="#999999" points="914.5,385.67 902.17,381 898.83,388 895,400.67 908.33,405.33 909.67,403.83 		"/>
		<polygon fill="#999999" points="901.33,438.83 905.5,431.33 935.33,441.83 927.67,476 923.33,483.5 892.33,471.5 		"/>
		<polygon fill="#EBCE61" points="314.33,396.83 313.17,389.33 324,378.17 401.67,414.5 402,417.33 395.17,425.83 396,429.83 
			392.33,434.17 		"/>
		<polygon fill="#EBCE61" points="311,395 309.67,387.83 255.67,362.17 242,375.17 244.33,382.33 298,408.5 		"/>
		<polygon fill="#EBCE61" points="233.5,334.83 221.17,345.67 223.33,353.33 246,364 249.17,361.5 248,356 256.83,348 256.33,345.5 
					"/>
		<polygon fill="#999999" points="219.17,345.33 221.5,352.17 207.83,364.33 160.83,341.33 158.33,334 172.67,322.67 		"/>
		<polygon fill="#999999" points="152.67,319.5 118.82,303.51 116.17,295.83 124.33,289.83 132,293.17 137.17,289.33 163,301.17 
			164,303.33 153.67,311.33 155.67,317.5 		"/>
		<polygon fill="#999999" points="93.17,291 90.17,284 104.17,274 120,281.33 120.67,283 118.5,285 119.5,287.33 122.17,289 
			123,290.5 117.17,302.67 		"/>
	</g>
	<g id="Layer_33" opacity="0.8">
		<polygon fill="#3C4454" points="505.51,320.26 506.52,322.97 415.58,435.33 416,439.67 413.67,441.33 413.08,433.92 		"/>
		<polygon fill="#3C4454" points="395.67,425.75 413,433.92 413.67,441.33 396.08,432.92 		"/>
		<polygon fill="#3C4454" points="415.58,435.33 416.08,442.58 576.67,518.83 577.33,511.67 		"/>
		<polygon fill="#3C4454" points="381.33,279.58 388.92,282.42 389.5,288.17 382,285.5 		"/>
		<path fill="#3C4454" d="M430.25,298.92c0,0,8.08,3,8,3.25s-3.83,4.25-3.83,4.25l-4.08-1.67L430.25,298.92z"/>
		<polygon fill="#3C4454" points="203.33,186.55 204.93,191.82 196.23,198.23 190.04,195.48 		"/>
		<polygon fill="#3C4454" points="732.84,354.88 730.78,362.44 739.02,451.53 741.77,444.66 		"/>
		<polygon fill="#3C4454" points="782.75,293.25 781.75,299.75 895.5,338.25 885.75,369.25 887.12,369.88 892.5,352.62 
			920.38,362.25 921.62,360.62 893,350.88 898.88,332.38 		"/>
		<polygon fill="#3C4454" points="915,383.5 900,378.25 893.5,399.75 894.88,400.62 898.62,388.25 902.62,381.38 913.75,385.25 		
			"/>
		<polygon fill="#3C4454" points="905.5,431.83 901.5,438.83 892.5,471.5 897,464.5 		"/>
		<polygon fill="#3C4454" points="940,291.17 926.33,287 921.33,304.17 924.04,305.21 924.88,303.67 928.83,289.33 939.17,292.5 		
			"/>
		<polygon fill="#3C4454" points="951.92,258.5 946.33,281.08 942.25,288.33 948.33,265 		"/>
		<path fill="#3C4454" d="M795.67,228l-0.83,6l15,4.83c0,0,3.17-5.5,2.67-5.83S795.67,228,795.67,228z"/>
		<path fill="#3C4454" d="M806.5,244.83l0.33,1.83l134,41.83c0,0,0.83-1.67,0.33-1.67S806.5,244.83,806.5,244.83z"/>
		<path fill="#3C4454" d="M405.33,413.5L325.5,377l16.5-17.67l-0.67-2.17l-28.67,29.5l-64.33-30.5l12-11.33l-24.67-11.33L328,251.88
			l-0.5-2c0.46,0.77-91.64,80.23-105.06,91.94l-51.62-23.07l105.43-87.12v-2.5l-107.75,88.59l-14.32-6.4l13.44-10.5l-30.19-14
			l-5.44,4.06l-5.56-2.38l102.19-76v-2.12L124.31,287.5l-5.38-2.56l5.44-3.94L104,271.62l-13.38,9.75l-59.75-28.19l3.75,7.69
			l57.12,27.38L90.5,284l13.62-9.62l16,7.25l-5.31,4l7.25,3.5l-8.19,6l3.19,7.75l1.31-0.77l-2.18-6.17l8-5.81l7.88,3.56l5.31-4
			l25.5,11.81l-13.62,10.12l3.31,8l2.38-1.5l14.58,6.96l3.05-2.15L219,345l2.33,7.36l1.56-0.52l-1.51-5.9l11.81-10.19l22.98,10.08
			l0.1,0.33l-12.1,10.33l2.17,7.5l3.5-2.17l4,2.33l2.17-1.83L309.67,388l0.5,2.83l3.33,1.67l-0.17-3l10.5-11.17l77.67,36l-10.17,12
			l1.17,7.33L396,430l-0.33-4.33L405.33,413.5z"/>
	</g>
	<g id="Layer_26">
		<polygon fill="#D4A52C" points="505.51,320.26 506.52,322.97 415.58,435.33 416,439.67 413.67,441.33 413.08,433.92 		"/>
		<polygon fill="#D4A52C" points="395.67,425.75 413,433.92 413.67,441.33 396.08,432.92 		"/>
		<polygon fill="#D4A52C" points="415.58,435.33 416.08,442.58 576.67,518.83 577.33,511.67 		"/>
		<polygon fill="#D4A52C" points="381.33,279.58 388.92,282.42 389.5,288.17 382,285.5 		"/>
		<path fill="#D4A52C" d="M430.25,298.92c0,0,8.08,3,8,3.25s-3.83,4.25-3.83,4.25l-4.08-1.67L430.25,298.92z"/>
		<polygon opacity="0.8" fill="#3C4454" points="732.84,354.88 730.78,362.44 739.02,451.53 741.77,444.66 		"/>
		<polygon opacity="0.8" fill="#3C4454" points="782.75,293.25 781.75,299.75 895.5,338.25 885.75,369.25 887.12,369.88 
			892.5,352.62 920.38,362.25 921.62,360.62 893,350.88 898.88,332.38 		"/>
		<polygon opacity="0.8" fill="#3C4454" points="915,383.5 900,378.25 893.5,399.75 894.88,400.62 898.62,388.25 902.62,381.38 
			913.75,385.25 		"/>
		<polygon opacity="0.8" fill="#3C4454" points="905.5,431.83 901.5,438.83 892.5,471.5 897,464.5 		"/>
		<polygon opacity="0.8" fill="#3C4454" points="940,291.17 926.33,287 921.33,304.17 924.04,305.21 924.88,303.67 928.83,289.33 
			939.17,292.5 		"/>
		<polygon opacity="0.8" fill="#3C4454" points="951.92,258.5 946.33,281.08 942.25,288.33 948.33,265 		"/>
		<path opacity="0.8" fill="#3C4454" d="M795.67,228l-0.83,6l15,4.83c0,0,3.17-5.5,2.67-5.83S795.67,228,795.67,228z"/>
		<path opacity="0.8" fill="#3C4454" d="M806.5,244.83l0.33,1.83l134,41.83c0,0,0.83-1.67,0.33-1.67S806.5,244.83,806.5,244.83z"/>
		<path fill="#D4A52C" d="M194.53,327.58l-7.47-1.58l7.03,3.14C194.23,328.62,194.38,328.1,194.53,327.58z"/>
		<path fill="#D4A52C" d="M405.33,413.5L325.5,377l16.5-17.67l-0.67-2.17l-28.67,29.5l-64.33-30.5l12-11.33l-24.67-11.33
			c0,0-1.83,1.69-2.96,2.66l23.46,9.67l0.1,0.33l-12.1,10.33l2.17,7.5l3.5-2.17l4,2.33l2.17-1.83L309.67,388l0.5,2.83l3.33,1.67
			l-0.17-3l10.5-11.17l77.67,36l-10.17,12l1.17,7.33L396,430l-0.33-4.33L405.33,413.5z"/>
	</g>
	<g id="Layer_35">
		<polygon fill="#EBCE61" points="485.17,500 485,492.83 496.5,476.17 541.67,497.5 541.67,504.33 530.5,522.33 		"/>
		<polygon fill="#999999" points="86.83,287.83 83.33,280.5 56.33,267.67 39.5,279.17 43.17,286.67 70.17,299.83 		"/>
	</g>
	<g id="Layer_34">
		<polygon fill="#BCBCBC" points="39.42,279 67,292.5 70.17,299.83 43,286.67 		"/>
		<polygon fill="#BCBCBC" points="90.25,283.75 114.08,295.17 117,302.83 92.83,291 		"/>
		<polygon fill="#BCBCBC" points="116.25,296.08 149.17,311.67 152.42,319.5 119,303.58 		"/>
		<polygon fill="#BCBCBC" points="158.08,333.92 205.75,356.75 208.33,364.67 161.33,341.92 		"/>
		<polygon fill="#EBC63D" points="221.33,345.83 244.42,356.67 246.33,364.33 223.67,353.58 		"/>
		<polygon fill="#EBC63D" points="242,374.83 296.33,401.08 298.08,408.83 244.42,382.58 		"/>
		<polygon fill="#EBC63D" points="313.25,389.42 314.67,396.92 392.17,433.92 391.25,426.25 		"/>
		<polygon fill="#EBC63D" points="485.33,492.67 485.33,500.33 530.5,521.83 530.5,514.67 		"/>
	</g>
	<g id="Layer_36">
		<polygon fill="#FFCC66" points="577.5,511.25 623,433 640.08,354.33 639.92,358.67 622.58,440 576.67,519.25 		"/>
		<polygon fill="#EBCE61" points="319.88,347.25 324.88,349.62 357.75,317 356.75,311.12 		"/>
		<polygon fill="#EBCE61" points="351.5,308.62 356.33,310.83 382.06,285.5 381.5,279.5 		"/>
		<polygon fill="#EBCE61" points="395.38,276.19 396.12,282.25 389.56,288.38 389.06,282.5 		"/>
		<polygon fill="#CCCCCC" points="741.5,444.25 739,452 878.75,509.25 882.75,502.5 		"/>
		<polygon fill="#CCCCCC" points="897,464 927.67,476.17 922.83,483.5 892.33,471.67 		"/>
		<polygon fill="#CCCCCC" points="896.67,400.83 897.5,399.17 909.5,403.67 908.5,405.33 		"/>
		<polygon fill="#CCCCCC" points="924,305.17 924.83,303.67 936,307.17 934.83,308.5 		"/>
		<polygon fill="#CCCCCC" points="942.17,288.5 946.17,281.17 970.33,289 966.5,296.17 		"/>
	</g>
	<g id="shadows" opacity="0.55">
		<path fill="#3C4454" d="M86.83,288.17l0.5-2.17c0,0-2.33-6-2.83-6.17c-0.5-0.17-27.17-13-27.17-13L50.5,269l0.33,2.33l5.83-3
			l26.67,12.5L86.83,288.17z"/>
		<polygon fill="#3C4454" points="165.67,328.17 164.83,323.04 172.67,321.88 219.71,343.58 222.29,351.38 221.62,352.08 
			219.42,344.88 172.92,322.92 		"/>
		<polygon fill="#3C4454" points="309.5,387.5 309.38,386.12 255.75,361 248.38,361.38 250.25,367.5 254.38,363.75 256,362.38 		"/>
		<polygon fill="#3C4454" points="540.62,496.88 540.5,495.25 495.38,474.12 481,473.25 481.75,478.25 491.5,483 496.62,476.25 		
			"/>
		<polygon fill="#3C4454" points="79,208.67 87.5,200.17 146.27,163.25 161,154 213.17,173.67 211,184 416.19,262.31 446.81,231.44 
			455.94,234.56 417.38,274.06 204.93,191.82 203.25,186.5 148.38,165.12 		"/>
		<path fill="#3C4454" d="M189.83,195.83c1,0,12.92-2.33,12.92-2.33l28.88,11.38l-0.25,2.62l2.38-1.75L281,224l-0.33,2.67l2.08-1.92
			l46.12,18v2.75l2.12-1.75l64,24.75l0.38,7.88l-65.75-26l-1.62,1.5l-0.5-2l-49.67-19.67l-1.5,1.25l-0.21-1.92L230,211.42l-1.25,1
			l-0.33-1.5L189.83,195.83z"/>
		<path fill="#3C4454" d="M319.75,347.5c0,0,12.25-6,13-5.75s10,3.25,9.5,4.25s0,3.75,0,3.75l2.25-2.5l24.5,10.5L403.75,321
			c0,0,4.5,2.5,5.25,2.25s21.25-22,21.25-22l0.5,2.25l7.75-1.5L410,333.5l-6.25-2.75l-35.25,38l-25-11l-1.5,2l-0.5-2.5L319.75,347.5
			z"/>
		<path fill="#3C4454" d="M630.5,347.5c-0.17-0.5-6.67-19.83-6.67-19.83L574,309.33l-7.75,11.08l-118.62-45.29l-7.38,7.88l31,12
			c0.89,0.41,76.19,29.52,102.76,39.79l-2.26,2.71L505,311.25l-2,1.75l-0.25-2.5L435.5,284l-5.75,6.25l1.25,8.25l5.5-5.75l69,27.5
			l1,2.75l1.25-2l68.75,26.75l9-12l-0.41-0.11l1.41-1.97l43.67,16.67C630.17,350.33,630.67,348,630.5,347.5z"/>
		<polygon fill="#3C4454" points="202.67,128.17 203.25,124.5 336.56,40.56 339.83,38.5 734.33,147.67 738,154.33 337,41.67 		"/>
		<polygon fill="#3C4454" points="741.67,444.33 739,451.67 737.67,437.67 726.33,433.33 716,408.33 710.67,328.33 723.67,333 
			770.67,244.33 787.33,248.33 737,349 741.67,350.33 758,318.33 873.67,358.33 879,342 881.33,343 879.67,339.17 881.5,333.33 
			898.67,332.67 887.33,370 767.33,328 751.5,361.5 733,354.83 		"/>
		<polygon fill="#3C4454" points="904.5,421.5 910.25,431 910,433.25 905.5,431.75 896.75,464 893,471.5 891.25,469.5 		"/>
		<path fill="#3C4454" d="M950,255.75c0,0,1.25,2.75,1.5,3.5s-5.5,22-5.5,22l-4,7.25L950,255.75z"/>
		<path fill="#3C4454" d="M928,238.5l-7.25-9.75c-1-1-134.5-38.75-134.5-38.75L774,212.5l7,12l-55.75-16.75l-2.5,4L795,234l0.5-6
			l13.17-24L928,238.5z"/>
		<polygon fill="#3C4454" points="812.5,233.25 799,235.25 797.25,238.5 798.75,240.5 796.5,240.25 774.25,285 781.5,300 
			782.5,293.75 806,246.19 806.88,246.69 806.69,245 		"/>
	</g>
	<g id="Layer_38">
	</g>
</g>
<g id="landmarks">
	<g id="garage-2">
		<polygon fill="#D3D3D3" points="663.33,301.33 193,134 337,41.33 753.33,158.33 		"/>
	</g>
	<g id="s210">
		<path fill="#DEDEDE" d="M31,253.5l38.25-39c0,0,78.25-50.75,79.5-49.75s54.25,21.5,54.25,21.5l-13,9.25l38.25,15.25L124.5,287.5
			L119,285l5.25-4l-21-9.5l-12.5,9.75L31,253.5z"/>
		<polygon fill="#DEDEDE" points="39.25,279.12 56.62,267.75 83.25,280.75 67,292.5 		"/>
		<polygon fill="#DEDEDE" points="90.25,283.75 103.75,274.25 120.5,281.5 115.5,285.38 122.12,289 114,295 		"/>
	</g>
	<g id="s220">
		<path fill="#DEDEDE" d="M116.5,296l32.75,15.5l13.75-10l-26-12c0,0-4,4.5-4.75,4.25s-8-3.75-8-3.75L116.5,296z"/>
		<polygon fill="#DEDEDE" points="229.75,211.25 275.75,229.5 168.25,317.75 153.75,311.25 167.25,300.75 137,286.5 132.25,291 
			126.25,288.5 		"/>
	</g>
	<g id="s230">
		<polygon fill="#DEDEDE" points="278,230.25 327.5,249.75 222.75,341.75 170.75,318.75 		"/>
		<polygon fill="#DEDEDE" points="158,334 173,323 219,344.75 205.75,357 		"/>
	</g>
	<g id="s240">
		<polygon fill="#F4DA89" points="329.75,250.25 395,276 389,282.25 381.25,279.75 351.5,308.5 356.75,311 319.75,347.5 
			341.25,357.25 312.5,387 248,356.25 260.25,345.25 236,333.75 		"/>
		<polygon fill="#F4DA89" points="221.5,346 234,335.5 256.25,346 244.25,356.75 		"/>
		<polygon fill="#F4DA89" points="242.25,374.75 256,362.5 309.25,387.5 296.25,400.5 		"/>
	</g>
	<g id="s250">
		<polygon fill="#F4DA89" points="313.25,389.75 324,378.5 401.25,414 391.5,426.25 		"/>
		<polygon fill="#F4DA89" points="343.25,357.75 368.5,368.75 403.75,330.75 409.75,333.25 438.25,302.25 430,298.75 436.75,292.75 
			505.5,319.75 413,434 395.75,426 405.75,413.25 325.5,376.75 		"/>
	</g>
	<g id="s260">
		<path fill="#F4DA89" d="M415.75,435.5L508,320.75l68.25,26.75l10-13.75c0,0,53.5,19.25,53.5,20s-17,79.25-17,79.25l-45.5,79
			C577.25,512,415,435.5,415.75,435.5z"/>
		<polygon fill="#F4DA89" points="496.5,476.25 541.25,497.25 530.25,514.5 484.5,492.5 		"/>
	</g>
	<g id="e205">
		<polygon fill="#DEDEDE" points="733,354.67 751.33,361 767.33,327.67 887.33,370 892.33,352.67 920.67,362.33 915.33,383 
			899.67,378.33 893.33,400.67 909,405.67 882.67,502.33 741.33,444.33 		"/>
		<polygon fill="#DEDEDE" points="915,385.67 902.33,381.33 897.67,400 910.33,404 		"/>
		<path fill="#DEDEDE" d="M905.67,431.33c1.33,0.33,29.67,10.33,29.67,10.33l-8,34.33L897,463.67L905.67,431.33z"/>
	</g>
	<g id="e215">
		<polygon fill="#DEDEDE" points="805.83,246.33 941,288.5 940.17,291.83 925.83,287.17 921.33,304 935.5,308.83 921.67,360.5 
			892.83,350.83 898.67,332.5 782.5,293.33 		"/>
		<path fill="#DEDEDE" d="M925,303c0.5,0.33,11.67,3.83,11.67,3.83l3.33-14l-11-3.5L925,303z"/>
	</g>
	<g id="e225">
		<polygon fill="#DEDEDE" points="795.5,227.83 808.67,203.5 952.83,245.5 941.33,286.83 806.67,245 812.5,233 		"/>
		<polygon fill="#DEDEDE" points="951.67,258.67 976.17,266 971.17,288.83 946.17,281.5 		"/>
	</g>
</g>
<g id="nopointer">
	<g id="Layer_29">
		<g>
			<g>
				<g>
					<polygon fill="#2B3E68" points="83.45,525.26 101.59,493.43 119.74,525.26 130.92,525.26 101.59,473.8 72.26,525.26 					"/>
				</g>
			</g>
			<path fill="#2B3E68" d="M143.54,528.48c-2.23,4.5-5.17,8.67-8.79,12.34c-8.86,8.97-20.63,13.91-33.16,13.91
				s-24.3-4.94-33.16-13.91c-8.86-8.97-13.73-20.9-13.73-33.58c0-12.69,4.88-24.61,13.73-33.58c8.86-8.97,20.63-13.91,33.16-13.91
				c12.53,0,24.3,4.94,33.16,13.91c8.86,8.97,13.73,20.9,13.73,33.58c0,1.27-0.06,2.52-0.16,3.77h8.07
				c0.08-1.25,0.14-2.51,0.14-3.77c0-14.87-5.71-28.84-16.09-39.35c-10.38-10.51-24.17-16.3-38.85-16.3s-28.47,5.79-38.85,16.3
				c-10.38,10.51-16.09,24.49-16.09,39.35c0,14.86,5.71,28.84,16.09,39.35c10.38,10.51,24.17,16.3,38.85,16.3
				c14.68,0,28.47-5.79,38.85-16.3c5.2-5.27,9.23-11.41,11.96-18.1H143.54z"/>
			<g>
				<path fill="#2B3E68" d="M143.7,518.79h10.47v6.42h-16.85v-32.32h6.38V518.79z"/>
				<path fill="#2B3E68" d="M181.68,492.89v6.46h-8.4v25.9h-6.38v-25.9h-8.45v-6.46H181.68z"/>
			</g>
			<g>
				<path fill="#2B3E68" d="M166.65,534.87c0-1.74,0.63-3.24,1.89-4.5c1.26-1.25,2.77-1.88,4.53-1.88c1.74,0,3.24,0.63,4.49,1.89
					c1.25,1.26,1.88,2.78,1.88,4.55c0,1.78-0.63,3.29-1.89,4.54c-1.26,1.25-2.79,1.87-4.57,1.87c-1.58,0-3-0.55-4.26-1.66
					C167.35,538.46,166.65,536.86,166.65,534.87z M168.52,534.9c0,1.37,0.45,2.5,1.36,3.38c0.9,0.88,1.95,1.32,3.13,1.32
					c1.28,0,2.37-0.45,3.25-1.35c0.88-0.91,1.32-2.02,1.32-3.32c0-1.32-0.44-2.43-1.31-3.32c-0.87-0.9-1.94-1.35-3.22-1.35
					c-1.27,0-2.35,0.45-3.23,1.35C168.95,532.49,168.52,533.59,168.52,534.9z"/>
				<path fill="#2B3E68" d="M191.13,530.49h-4.26v2.98h4.11v1.76h-4.11v5.9h-1.85v-12.4h6.11V530.49z"/>
				<path fill="#2B3E68" d="M198.36,528.73v12.4h-1.85v-12.4H198.36z"/>
				<path fill="#2B3E68" d="M213.59,529.4v2.22c-1.07-0.9-2.17-1.36-3.31-1.36c-1.26,0-2.32,0.46-3.18,1.37
					c-0.87,0.91-1.3,2.02-1.3,3.34c0,1.3,0.43,2.4,1.3,3.29c0.87,0.89,1.93,1.34,3.19,1.34c0.65,0,1.2-0.11,1.66-0.32
					c0.25-0.11,0.52-0.25,0.79-0.43c0.27-0.18,0.56-0.4,0.86-0.66v2.26c-1.06,0.6-2.17,0.91-3.33,0.91c-1.75,0-3.24-0.62-4.48-1.85
					c-1.23-1.25-1.85-2.75-1.85-4.51c0-1.58,0.52-2.99,1.55-4.22c1.27-1.51,2.91-2.27,4.92-2.27
					C211.51,528.49,212.57,528.79,213.59,529.4z"/>
				<path fill="#2B3E68" d="M221.02,528.73v12.4h-1.85v-12.4H221.02z"/>
				<path fill="#2B3E68" d="M227.21,541.13v-13.24l8.93,9.46v-8.61h1.85v13.15l-8.93-9.43v8.68H227.21z"/>
				<path fill="#2B3E68" d="M251.44,538.12h-5.24l-1.36,3.01h-1.99l6.06-13.18l5.84,13.18h-2.02L251.44,538.12z M250.69,536.36
					l-1.82-4.21l-1.9,4.21H250.69z"/>
			</g>
			<polygon fill="#2B3E68" points="186.77,525.2 198.16,505.21 209.56,525.2 216.58,525.2 198.16,492.89 179.74,525.2 			"/>
			<g>
				<path fill="#2B3E68" d="M103.42,518.79l-1.87,6.55l-1.87-6.55c-0.19-0.68-0.79-1.16-1.49-1.2l-35.79-2.16l35.79-2.16
					c0.7-0.04,1.29-0.52,1.49-1.2l1.87-6.55l1.87,6.55c0.19,0.68,0.79,1.16,1.49,1.2L219,515.43l-114.08,2.16
					C104.22,517.63,103.62,518.11,103.42,518.79z"/>
			</g>
		</g>
	</g>
</g>
</svg>
